<mxfile host="app.diagrams.net" modified="2023-09-26T08:50:06.898Z" agent="Mozilla/5.0 (Windows NT 10.0; Win64; x64) AppleWebKit/537.36 (KHTML, like Gecko) Chrome/117.0.0.0 Safari/537.36 Edg/117.0.2045.36" etag="d4Sep0133X3CtmOdsuD5" version="21.8.2" type="github">
  <diagram id="C5RBs43oDa-KdzZeNtuy" name="Page-1">
    <mxGraphModel dx="3278" dy="964" grid="0" gridSize="10" guides="1" tooltips="1" connect="1" arrows="1" fold="1" page="0" pageScale="1" pageWidth="827" pageHeight="1169" math="0" shadow="0">
      <root>
        <mxCell id="WIyWlLk6GJQsqaUBKTNV-0" />
        <mxCell id="WIyWlLk6GJQsqaUBKTNV-1" parent="WIyWlLk6GJQsqaUBKTNV-0" />
        <mxCell id="KD26_EoCOuMA53v5xbRF-264" value="PhieuChamCongHanhChinh_1Ngay" style="swimlane;fontStyle=1;align=center;verticalAlign=top;childLayout=stackLayout;horizontal=1;startSize=26;horizontalStack=0;resizeParent=1;resizeLast=0;collapsible=1;marginBottom=0;rounded=0;shadow=0;strokeWidth=1;fontSize=16;" parent="WIyWlLk6GJQsqaUBKTNV-1" vertex="1">
          <mxGeometry x="1296" y="707" width="284" height="294" as="geometry">
            <mxRectangle x="230" y="140" width="160" height="26" as="alternateBounds" />
          </mxGeometry>
        </mxCell>
        <mxCell id="KD26_EoCOuMA53v5xbRF-265" value="- maNV: String {id}" style="text;align=left;verticalAlign=top;spacingLeft=4;spacingRight=4;overflow=hidden;rotatable=0;points=[[0,0.5],[1,0.5]];portConstraint=eastwest;fontSize=16;" parent="KD26_EoCOuMA53v5xbRF-264" vertex="1">
          <mxGeometry y="26" width="284" height="26" as="geometry" />
        </mxCell>
        <mxCell id="KD26_EoCOuMA53v5xbRF-266" value="- Ngay: LocalData {id}" style="text;align=left;verticalAlign=top;spacingLeft=4;spacingRight=4;overflow=hidden;rotatable=0;points=[[0,0.5],[1,0.5]];portConstraint=eastwest;rounded=0;shadow=0;html=0;fontSize=16;" parent="KD26_EoCOuMA53v5xbRF-264" vertex="1">
          <mxGeometry y="52" width="284" height="26" as="geometry" />
        </mxCell>
        <mxCell id="KD26_EoCOuMA53v5xbRF-270" value="- vang: boolean" style="text;align=left;verticalAlign=top;spacingLeft=4;spacingRight=4;overflow=hidden;rotatable=0;points=[[0,0.5],[1,0.5]];portConstraint=eastwest;rounded=0;shadow=0;html=0;fontSize=16;" parent="KD26_EoCOuMA53v5xbRF-264" vertex="1">
          <mxGeometry y="78" width="284" height="26" as="geometry" />
        </mxCell>
        <mxCell id="KD26_EoCOuMA53v5xbRF-293" value="- diTre: boolean" style="text;align=left;verticalAlign=top;spacingLeft=4;spacingRight=4;overflow=hidden;rotatable=0;points=[[0,0.5],[1,0.5]];portConstraint=eastwest;rounded=0;shadow=0;html=0;fontSize=16;" parent="KD26_EoCOuMA53v5xbRF-264" vertex="1">
          <mxGeometry y="104" width="284" height="26" as="geometry" />
        </mxCell>
        <mxCell id="KD26_EoCOuMA53v5xbRF-294" value="- gioTangCa: int" style="text;align=left;verticalAlign=top;spacingLeft=4;spacingRight=4;overflow=hidden;rotatable=0;points=[[0,0.5],[1,0.5]];portConstraint=eastwest;rounded=0;shadow=0;html=0;fontSize=16;" parent="KD26_EoCOuMA53v5xbRF-264" vertex="1">
          <mxGeometry y="130" width="284" height="26" as="geometry" />
        </mxCell>
        <mxCell id="KD26_EoCOuMA53v5xbRF-295" value="- tienPhat: double" style="text;align=left;verticalAlign=top;spacingLeft=4;spacingRight=4;overflow=hidden;rotatable=0;points=[[0,0.5],[1,0.5]];portConstraint=eastwest;rounded=0;shadow=0;html=0;fontSize=16;" parent="KD26_EoCOuMA53v5xbRF-264" vertex="1">
          <mxGeometry y="156" width="284" height="26" as="geometry" />
        </mxCell>
        <mxCell id="KD26_EoCOuMA53v5xbRF-296" value="- noiDungPhat: String" style="text;align=left;verticalAlign=top;spacingLeft=4;spacingRight=4;overflow=hidden;rotatable=0;points=[[0,0.5],[1,0.5]];portConstraint=eastwest;rounded=0;shadow=0;html=0;fontSize=16;" parent="KD26_EoCOuMA53v5xbRF-264" vertex="1">
          <mxGeometry y="182" width="284" height="26" as="geometry" />
        </mxCell>
        <mxCell id="KD26_EoCOuMA53v5xbRF-268" value="" style="line;html=1;strokeWidth=1;align=left;verticalAlign=middle;spacingTop=-1;spacingLeft=3;spacingRight=3;rotatable=0;labelPosition=right;points=[];portConstraint=eastwest;fontSize=16;" parent="KD26_EoCOuMA53v5xbRF-264" vertex="1">
          <mxGeometry y="208" width="284" height="8" as="geometry" />
        </mxCell>
        <mxCell id="KD26_EoCOuMA53v5xbRF-267" value="&lt;&lt;get()/set()&gt;&gt;" style="text;align=center;verticalAlign=top;spacingLeft=4;spacingRight=4;overflow=hidden;rotatable=0;points=[[0,0.5],[1,0.5]];portConstraint=eastwest;rounded=0;shadow=0;html=0;fontSize=16;" parent="KD26_EoCOuMA53v5xbRF-264" vertex="1">
          <mxGeometry y="216" width="284" height="26" as="geometry" />
        </mxCell>
        <mxCell id="KD26_EoCOuMA53v5xbRF-269" value="+ constructor()Â " style="text;align=left;verticalAlign=top;spacingLeft=4;spacingRight=4;overflow=hidden;rotatable=0;points=[[0,0.5],[1,0.5]];portConstraint=eastwest;fontSize=16;" parent="KD26_EoCOuMA53v5xbRF-264" vertex="1">
          <mxGeometry y="242" width="284" height="26" as="geometry" />
        </mxCell>
        <mxCell id="KD26_EoCOuMA53v5xbRF-358" value="+ toString(): String" style="text;align=left;verticalAlign=top;spacingLeft=4;spacingRight=4;overflow=hidden;rotatable=0;points=[[0,0.5],[1,0.5]];portConstraint=eastwest;fontSize=16;" parent="KD26_EoCOuMA53v5xbRF-264" vertex="1">
          <mxGeometry y="268" width="284" height="26" as="geometry" />
        </mxCell>
        <mxCell id="KD26_EoCOuMA53v5xbRF-297" value="NhanVien" style="swimlane;fontStyle=1;align=center;verticalAlign=top;childLayout=stackLayout;horizontal=1;startSize=26;horizontalStack=0;resizeParent=1;resizeLast=0;collapsible=1;marginBottom=0;rounded=0;shadow=0;strokeWidth=1;fontSize=16;" parent="WIyWlLk6GJQsqaUBKTNV-1" vertex="1">
          <mxGeometry x="1670" y="705" width="255" height="452" as="geometry">
            <mxRectangle x="230" y="140" width="160" height="26" as="alternateBounds" />
          </mxGeometry>
        </mxCell>
        <mxCell id="KD26_EoCOuMA53v5xbRF-298" value="- maNV: String {id}" style="text;align=left;verticalAlign=top;spacingLeft=4;spacingRight=4;overflow=hidden;rotatable=0;points=[[0,0.5],[1,0.5]];portConstraint=eastwest;fontSize=16;" parent="KD26_EoCOuMA53v5xbRF-297" vertex="1">
          <mxGeometry y="26" width="255" height="26" as="geometry" />
        </mxCell>
        <mxCell id="KD26_EoCOuMA53v5xbRF-299" value="- tenNV: String" style="text;align=left;verticalAlign=top;spacingLeft=4;spacingRight=4;overflow=hidden;rotatable=0;points=[[0,0.5],[1,0.5]];portConstraint=eastwest;rounded=0;shadow=0;html=0;fontSize=16;" parent="KD26_EoCOuMA53v5xbRF-297" vertex="1">
          <mxGeometry y="52" width="255" height="26" as="geometry" />
        </mxCell>
        <mxCell id="KD26_EoCOuMA53v5xbRF-300" value="- gioiTinh: boolean" style="text;align=left;verticalAlign=top;spacingLeft=4;spacingRight=4;overflow=hidden;rotatable=0;points=[[0,0.5],[1,0.5]];portConstraint=eastwest;rounded=0;shadow=0;html=0;fontSize=16;" parent="KD26_EoCOuMA53v5xbRF-297" vertex="1">
          <mxGeometry y="78" width="255" height="26" as="geometry" />
        </mxCell>
        <mxCell id="KD26_EoCOuMA53v5xbRF-301" value="- ngaySinh: Localdate" style="text;align=left;verticalAlign=top;spacingLeft=4;spacingRight=4;overflow=hidden;rotatable=0;points=[[0,0.5],[1,0.5]];portConstraint=eastwest;rounded=0;shadow=0;html=0;fontSize=16;" parent="KD26_EoCOuMA53v5xbRF-297" vertex="1">
          <mxGeometry y="104" width="255" height="26" as="geometry" />
        </mxCell>
        <mxCell id="KD26_EoCOuMA53v5xbRF-302" value="- gngayBatDauLam: Localdate" style="text;align=left;verticalAlign=top;spacingLeft=4;spacingRight=4;overflow=hidden;rotatable=0;points=[[0,0.5],[1,0.5]];portConstraint=eastwest;rounded=0;shadow=0;html=0;fontSize=16;" parent="KD26_EoCOuMA53v5xbRF-297" vertex="1">
          <mxGeometry y="130" width="255" height="26" as="geometry" />
        </mxCell>
        <mxCell id="KD26_EoCOuMA53v5xbRF-303" value="- CCCD: String" style="text;align=left;verticalAlign=top;spacingLeft=4;spacingRight=4;overflow=hidden;rotatable=0;points=[[0,0.5],[1,0.5]];portConstraint=eastwest;rounded=0;shadow=0;html=0;fontSize=16;" parent="KD26_EoCOuMA53v5xbRF-297" vertex="1">
          <mxGeometry y="156" width="255" height="26" as="geometry" />
        </mxCell>
        <mxCell id="KD26_EoCOuMA53v5xbRF-304" value="- luongCoBan: double" style="text;align=left;verticalAlign=top;spacingLeft=4;spacingRight=4;overflow=hidden;rotatable=0;points=[[0,0.5],[1,0.5]];portConstraint=eastwest;rounded=0;shadow=0;html=0;fontSize=16;" parent="KD26_EoCOuMA53v5xbRF-297" vertex="1">
          <mxGeometry y="182" width="255" height="26" as="geometry" />
        </mxCell>
        <mxCell id="KD26_EoCOuMA53v5xbRF-351" value="- phuCap: double" style="text;align=left;verticalAlign=top;spacingLeft=4;spacingRight=4;overflow=hidden;rotatable=0;points=[[0,0.5],[1,0.5]];portConstraint=eastwest;rounded=0;shadow=0;html=0;fontSize=16;" parent="KD26_EoCOuMA53v5xbRF-297" vertex="1">
          <mxGeometry y="208" width="255" height="26" as="geometry" />
        </mxCell>
        <mxCell id="KD26_EoCOuMA53v5xbRF-352" value="- thamNien: int" style="text;align=left;verticalAlign=top;spacingLeft=4;spacingRight=4;overflow=hidden;rotatable=0;points=[[0,0.5],[1,0.5]];portConstraint=eastwest;rounded=0;shadow=0;html=0;fontSize=16;" parent="KD26_EoCOuMA53v5xbRF-297" vertex="1">
          <mxGeometry y="234" width="255" height="26" as="geometry" />
        </mxCell>
        <mxCell id="KD26_EoCOuMA53v5xbRF-353" value="- capBac: int" style="text;align=left;verticalAlign=top;spacingLeft=4;spacingRight=4;overflow=hidden;rotatable=0;points=[[0,0.5],[1,0.5]];portConstraint=eastwest;rounded=0;shadow=0;html=0;fontSize=16;" parent="KD26_EoCOuMA53v5xbRF-297" vertex="1">
          <mxGeometry y="260" width="255" height="26" as="geometry" />
        </mxCell>
        <mxCell id="KD26_EoCOuMA53v5xbRF-355" value="- trangThai: boolean" style="text;align=left;verticalAlign=top;spacingLeft=4;spacingRight=4;overflow=hidden;rotatable=0;points=[[0,0.5],[1,0.5]];portConstraint=eastwest;rounded=0;shadow=0;html=0;fontSize=16;" parent="KD26_EoCOuMA53v5xbRF-297" vertex="1">
          <mxGeometry y="286" width="255" height="26" as="geometry" />
        </mxCell>
        <mxCell id="KD26_EoCOuMA53v5xbRF-356" value="- soNgayNghiPhepTrongNam: int" style="text;align=left;verticalAlign=top;spacingLeft=4;spacingRight=4;overflow=hidden;rotatable=0;points=[[0,0.5],[1,0.5]];portConstraint=eastwest;rounded=0;shadow=0;html=0;fontSize=16;" parent="KD26_EoCOuMA53v5xbRF-297" vertex="1">
          <mxGeometry y="312" width="255" height="26" as="geometry" />
        </mxCell>
        <mxCell id="KD26_EoCOuMA53v5xbRF-357" value="- dienThoai: String" style="text;align=left;verticalAlign=top;spacingLeft=4;spacingRight=4;overflow=hidden;rotatable=0;points=[[0,0.5],[1,0.5]];portConstraint=eastwest;rounded=0;shadow=0;html=0;fontSize=16;" parent="KD26_EoCOuMA53v5xbRF-297" vertex="1">
          <mxGeometry y="338" width="255" height="26" as="geometry" />
        </mxCell>
        <mxCell id="KD26_EoCOuMA53v5xbRF-305" value="" style="line;html=1;strokeWidth=1;align=left;verticalAlign=middle;spacingTop=-1;spacingLeft=3;spacingRight=3;rotatable=0;labelPosition=right;points=[];portConstraint=eastwest;fontSize=16;" parent="KD26_EoCOuMA53v5xbRF-297" vertex="1">
          <mxGeometry y="364" width="255" height="8" as="geometry" />
        </mxCell>
        <mxCell id="KD26_EoCOuMA53v5xbRF-307" value="&lt;&lt;get()/set()&gt;&gt;" style="text;align=center;verticalAlign=top;spacingLeft=4;spacingRight=4;overflow=hidden;rotatable=0;points=[[0,0.5],[1,0.5]];portConstraint=eastwest;fontSize=16;" parent="KD26_EoCOuMA53v5xbRF-297" vertex="1">
          <mxGeometry y="372" width="255" height="26" as="geometry" />
        </mxCell>
        <mxCell id="KD26_EoCOuMA53v5xbRF-361" value="+ constructor()" style="text;align=left;verticalAlign=top;spacingLeft=4;spacingRight=4;overflow=hidden;rotatable=0;points=[[0,0.5],[1,0.5]];portConstraint=eastwest;fontSize=16;" parent="KD26_EoCOuMA53v5xbRF-297" vertex="1">
          <mxGeometry y="398" width="255" height="26" as="geometry" />
        </mxCell>
        <mxCell id="KD26_EoCOuMA53v5xbRF-362" value="+ toString(): String" style="text;align=left;verticalAlign=top;spacingLeft=4;spacingRight=4;overflow=hidden;rotatable=0;points=[[0,0.5],[1,0.5]];portConstraint=eastwest;fontSize=16;" parent="KD26_EoCOuMA53v5xbRF-297" vertex="1">
          <mxGeometry y="424" width="255" height="26" as="geometry" />
        </mxCell>
        <mxCell id="KD26_EoCOuMA53v5xbRF-379" value="TaiKhoan" style="swimlane;fontStyle=1;align=center;verticalAlign=top;childLayout=stackLayout;horizontal=1;startSize=26;horizontalStack=0;resizeParent=1;resizeLast=0;collapsible=1;marginBottom=0;rounded=0;shadow=0;strokeWidth=1;fontSize=16;" parent="WIyWlLk6GJQsqaUBKTNV-1" vertex="1">
          <mxGeometry x="2021" y="705" width="218" height="248" as="geometry">
            <mxRectangle x="230" y="140" width="160" height="26" as="alternateBounds" />
          </mxGeometry>
        </mxCell>
        <mxCell id="KD26_EoCOuMA53v5xbRF-380" value="- userName: String {id}" style="text;align=left;verticalAlign=top;spacingLeft=4;spacingRight=4;overflow=hidden;rotatable=0;points=[[0,0.5],[1,0.5]];portConstraint=eastwest;fontSize=16;" parent="KD26_EoCOuMA53v5xbRF-379" vertex="1">
          <mxGeometry y="26" width="218" height="26" as="geometry" />
        </mxCell>
        <mxCell id="KD26_EoCOuMA53v5xbRF-381" value="- maNV: StringÂ " style="text;align=left;verticalAlign=top;spacingLeft=4;spacingRight=4;overflow=hidden;rotatable=0;points=[[0,0.5],[1,0.5]];portConstraint=eastwest;rounded=0;shadow=0;html=0;fontSize=16;" parent="KD26_EoCOuMA53v5xbRF-379" vertex="1">
          <mxGeometry y="52" width="218" height="26" as="geometry" />
        </mxCell>
        <mxCell id="KD26_EoCOuMA53v5xbRF-391" value="- matKhau: String" style="text;align=left;verticalAlign=top;spacingLeft=4;spacingRight=4;overflow=hidden;rotatable=0;points=[[0,0.5],[1,0.5]];portConstraint=eastwest;rounded=0;shadow=0;html=0;fontSize=16;" parent="KD26_EoCOuMA53v5xbRF-379" vertex="1">
          <mxGeometry y="78" width="218" height="26" as="geometry" />
        </mxCell>
        <mxCell id="KD26_EoCOuMA53v5xbRF-392" value="- vaiTro: String" style="text;align=left;verticalAlign=top;spacingLeft=4;spacingRight=4;overflow=hidden;rotatable=0;points=[[0,0.5],[1,0.5]];portConstraint=eastwest;rounded=0;shadow=0;html=0;fontSize=16;" parent="KD26_EoCOuMA53v5xbRF-379" vertex="1">
          <mxGeometry y="104" width="218" height="26" as="geometry" />
        </mxCell>
        <mxCell id="KD26_EoCOuMA53v5xbRF-397" value="- trangThai: boolean" style="text;align=left;verticalAlign=top;spacingLeft=4;spacingRight=4;overflow=hidden;rotatable=0;points=[[0,0.5],[1,0.5]];portConstraint=eastwest;rounded=0;shadow=0;html=0;fontSize=16;" parent="KD26_EoCOuMA53v5xbRF-379" vertex="1">
          <mxGeometry y="130" width="218" height="26" as="geometry" />
        </mxCell>
        <mxCell id="KD26_EoCOuMA53v5xbRF-393" value="" style="line;html=1;strokeWidth=1;align=left;verticalAlign=middle;spacingTop=-1;spacingLeft=3;spacingRight=3;rotatable=0;labelPosition=right;points=[];portConstraint=eastwest;fontSize=16;" parent="KD26_EoCOuMA53v5xbRF-379" vertex="1">
          <mxGeometry y="156" width="218" height="8" as="geometry" />
        </mxCell>
        <mxCell id="KD26_EoCOuMA53v5xbRF-394" value="&lt;&lt;get()/set()&gt;&gt;" style="text;align=center;verticalAlign=top;spacingLeft=4;spacingRight=4;overflow=hidden;rotatable=0;points=[[0,0.5],[1,0.5]];portConstraint=eastwest;fontSize=16;" parent="KD26_EoCOuMA53v5xbRF-379" vertex="1">
          <mxGeometry y="164" width="218" height="26" as="geometry" />
        </mxCell>
        <mxCell id="KD26_EoCOuMA53v5xbRF-395" value="+ constructor()" style="text;align=left;verticalAlign=top;spacingLeft=4;spacingRight=4;overflow=hidden;rotatable=0;points=[[0,0.5],[1,0.5]];portConstraint=eastwest;fontSize=16;" parent="KD26_EoCOuMA53v5xbRF-379" vertex="1">
          <mxGeometry y="190" width="218" height="26" as="geometry" />
        </mxCell>
        <mxCell id="KD26_EoCOuMA53v5xbRF-396" value="+ toString(): String" style="text;align=left;verticalAlign=top;spacingLeft=4;spacingRight=4;overflow=hidden;rotatable=0;points=[[0,0.5],[1,0.5]];portConstraint=eastwest;fontSize=16;" parent="KD26_EoCOuMA53v5xbRF-379" vertex="1">
          <mxGeometry y="216" width="218" height="26" as="geometry" />
        </mxCell>
        <mxCell id="KD26_EoCOuMA53v5xbRF-423" value="PhieuLuong_1Thang" style="swimlane;fontStyle=1;align=center;verticalAlign=top;childLayout=stackLayout;horizontal=1;startSize=26;horizontalStack=0;resizeParent=1;resizeLast=0;collapsible=1;marginBottom=0;rounded=0;shadow=0;strokeWidth=1;fontSize=16;" parent="WIyWlLk6GJQsqaUBKTNV-1" vertex="1">
          <mxGeometry x="2385" y="698" width="231" height="248" as="geometry">
            <mxRectangle x="230" y="140" width="160" height="26" as="alternateBounds" />
          </mxGeometry>
        </mxCell>
        <mxCell id="KD26_EoCOuMA53v5xbRF-424" value="- maNV: String {id}" style="text;align=left;verticalAlign=top;spacingLeft=4;spacingRight=4;overflow=hidden;rotatable=0;points=[[0,0.5],[1,0.5]];portConstraint=eastwest;fontSize=16;" parent="KD26_EoCOuMA53v5xbRF-423" vertex="1">
          <mxGeometry y="26" width="231" height="26" as="geometry" />
        </mxCell>
        <mxCell id="KD26_EoCOuMA53v5xbRF-425" value="- thang: int {id}" style="text;align=left;verticalAlign=top;spacingLeft=4;spacingRight=4;overflow=hidden;rotatable=0;points=[[0,0.5],[1,0.5]];portConstraint=eastwest;rounded=0;shadow=0;html=0;fontSize=16;" parent="KD26_EoCOuMA53v5xbRF-423" vertex="1">
          <mxGeometry y="52" width="231" height="26" as="geometry" />
        </mxCell>
        <mxCell id="KD26_EoCOuMA53v5xbRF-426" value="- soNgayLam: int" style="text;align=left;verticalAlign=top;spacingLeft=4;spacingRight=4;overflow=hidden;rotatable=0;points=[[0,0.5],[1,0.5]];portConstraint=eastwest;rounded=0;shadow=0;html=0;fontSize=16;" parent="KD26_EoCOuMA53v5xbRF-423" vertex="1">
          <mxGeometry y="78" width="231" height="26" as="geometry" />
        </mxCell>
        <mxCell id="KD26_EoCOuMA53v5xbRF-427" value="- thuong: double" style="text;align=left;verticalAlign=top;spacingLeft=4;spacingRight=4;overflow=hidden;rotatable=0;points=[[0,0.5],[1,0.5]];portConstraint=eastwest;rounded=0;shadow=0;html=0;fontSize=16;" parent="KD26_EoCOuMA53v5xbRF-423" vertex="1">
          <mxGeometry y="104" width="231" height="26" as="geometry" />
        </mxCell>
        <mxCell id="KD26_EoCOuMA53v5xbRF-428" value="- phat: double" style="text;align=left;verticalAlign=top;spacingLeft=4;spacingRight=4;overflow=hidden;rotatable=0;points=[[0,0.5],[1,0.5]];portConstraint=eastwest;rounded=0;shadow=0;html=0;fontSize=16;" parent="KD26_EoCOuMA53v5xbRF-423" vertex="1">
          <mxGeometry y="130" width="231" height="26" as="geometry" />
        </mxCell>
        <mxCell id="KD26_EoCOuMA53v5xbRF-429" value="" style="line;html=1;strokeWidth=1;align=left;verticalAlign=middle;spacingTop=-1;spacingLeft=3;spacingRight=3;rotatable=0;labelPosition=right;points=[];portConstraint=eastwest;fontSize=16;" parent="KD26_EoCOuMA53v5xbRF-423" vertex="1">
          <mxGeometry y="156" width="231" height="8" as="geometry" />
        </mxCell>
        <mxCell id="KD26_EoCOuMA53v5xbRF-430" value="&lt;&lt;get()/set()&gt;&gt;" style="text;align=center;verticalAlign=top;spacingLeft=4;spacingRight=4;overflow=hidden;rotatable=0;points=[[0,0.5],[1,0.5]];portConstraint=eastwest;fontSize=16;" parent="KD26_EoCOuMA53v5xbRF-423" vertex="1">
          <mxGeometry y="164" width="231" height="26" as="geometry" />
        </mxCell>
        <mxCell id="KD26_EoCOuMA53v5xbRF-431" value="+ constructor()" style="text;align=left;verticalAlign=top;spacingLeft=4;spacingRight=4;overflow=hidden;rotatable=0;points=[[0,0.5],[1,0.5]];portConstraint=eastwest;fontSize=16;" parent="KD26_EoCOuMA53v5xbRF-423" vertex="1">
          <mxGeometry y="190" width="231" height="26" as="geometry" />
        </mxCell>
        <mxCell id="KD26_EoCOuMA53v5xbRF-432" value="+ toString(): String" style="text;align=left;verticalAlign=top;spacingLeft=4;spacingRight=4;overflow=hidden;rotatable=0;points=[[0,0.5],[1,0.5]];portConstraint=eastwest;fontSize=16;" parent="KD26_EoCOuMA53v5xbRF-423" vertex="1">
          <mxGeometry y="216" width="231" height="26" as="geometry" />
        </mxCell>
        <mxCell id="KD26_EoCOuMA53v5xbRF-449" value="SanPham" style="swimlane;fontStyle=1;align=center;verticalAlign=top;childLayout=stackLayout;horizontal=1;startSize=26;horizontalStack=0;resizeParent=1;resizeLast=0;collapsible=1;marginBottom=0;rounded=0;shadow=0;strokeWidth=1;fontSize=16;" parent="WIyWlLk6GJQsqaUBKTNV-1" vertex="1">
          <mxGeometry x="1307" y="1273.5" width="217" height="247" as="geometry">
            <mxRectangle x="230" y="140" width="160" height="26" as="alternateBounds" />
          </mxGeometry>
        </mxCell>
        <mxCell id="KD26_EoCOuMA53v5xbRF-450" value="- maSP: String {id}" style="text;align=left;verticalAlign=top;spacingLeft=4;spacingRight=4;overflow=hidden;rotatable=0;points=[[0,0.5],[1,0.5]];portConstraint=eastwest;fontSize=16;" parent="KD26_EoCOuMA53v5xbRF-449" vertex="1">
          <mxGeometry y="26" width="217" height="26" as="geometry" />
        </mxCell>
        <mxCell id="KD26_EoCOuMA53v5xbRF-451" value="- maHD: String {id}" style="text;align=left;verticalAlign=top;spacingLeft=4;spacingRight=4;overflow=hidden;rotatable=0;points=[[0,0.5],[1,0.5]];portConstraint=eastwest;rounded=0;shadow=0;html=0;fontSize=16;" parent="KD26_EoCOuMA53v5xbRF-449" vertex="1">
          <mxGeometry y="52" width="217" height="26" as="geometry" />
        </mxCell>
        <mxCell id="KD26_EoCOuMA53v5xbRF-452" value="- tenSP: String" style="text;align=left;verticalAlign=top;spacingLeft=4;spacingRight=4;overflow=hidden;rotatable=0;points=[[0,0.5],[1,0.5]];portConstraint=eastwest;rounded=0;shadow=0;html=0;fontSize=16;" parent="KD26_EoCOuMA53v5xbRF-449" vertex="1">
          <mxGeometry y="78" width="217" height="26" as="geometry" />
        </mxCell>
        <mxCell id="KD26_EoCOuMA53v5xbRF-453" value="- soLuong: int" style="text;align=left;verticalAlign=top;spacingLeft=4;spacingRight=4;overflow=hidden;rotatable=0;points=[[0,0.5],[1,0.5]];portConstraint=eastwest;rounded=0;shadow=0;html=0;fontSize=16;" parent="KD26_EoCOuMA53v5xbRF-449" vertex="1">
          <mxGeometry y="104" width="217" height="26" as="geometry" />
        </mxCell>
        <mxCell id="KD26_EoCOuMA53v5xbRF-454" value="- donGia: double" style="text;align=left;verticalAlign=top;spacingLeft=4;spacingRight=4;overflow=hidden;rotatable=0;points=[[0,0.5],[1,0.5]];portConstraint=eastwest;rounded=0;shadow=0;html=0;fontSize=16;" parent="KD26_EoCOuMA53v5xbRF-449" vertex="1">
          <mxGeometry y="130" width="217" height="26" as="geometry" />
        </mxCell>
        <mxCell id="KD26_EoCOuMA53v5xbRF-457" value="" style="line;html=1;strokeWidth=1;align=left;verticalAlign=middle;spacingTop=-1;spacingLeft=3;spacingRight=3;rotatable=0;labelPosition=right;points=[];portConstraint=eastwest;fontSize=16;" parent="KD26_EoCOuMA53v5xbRF-449" vertex="1">
          <mxGeometry y="156" width="217" height="8" as="geometry" />
        </mxCell>
        <mxCell id="KD26_EoCOuMA53v5xbRF-458" value="&lt;&lt;get()/set()&gt;&gt;" style="text;align=center;verticalAlign=top;spacingLeft=4;spacingRight=4;overflow=hidden;rotatable=0;points=[[0,0.5],[1,0.5]];portConstraint=eastwest;rounded=0;shadow=0;html=0;fontSize=16;" parent="KD26_EoCOuMA53v5xbRF-449" vertex="1">
          <mxGeometry y="164" width="217" height="26" as="geometry" />
        </mxCell>
        <mxCell id="KD26_EoCOuMA53v5xbRF-459" value="+ constructor()Â " style="text;align=left;verticalAlign=top;spacingLeft=4;spacingRight=4;overflow=hidden;rotatable=0;points=[[0,0.5],[1,0.5]];portConstraint=eastwest;fontSize=16;" parent="KD26_EoCOuMA53v5xbRF-449" vertex="1">
          <mxGeometry y="190" width="217" height="26" as="geometry" />
        </mxCell>
        <mxCell id="KD26_EoCOuMA53v5xbRF-460" value="+ toString(): String" style="text;align=left;verticalAlign=top;spacingLeft=4;spacingRight=4;overflow=hidden;rotatable=0;points=[[0,0.5],[1,0.5]];portConstraint=eastwest;fontSize=16;" parent="KD26_EoCOuMA53v5xbRF-449" vertex="1">
          <mxGeometry y="216" width="217" height="26" as="geometry" />
        </mxCell>
        <mxCell id="KD26_EoCOuMA53v5xbRF-483" value="HopDong" style="swimlane;fontStyle=1;align=center;verticalAlign=top;childLayout=stackLayout;horizontal=1;startSize=26;horizontalStack=0;resizeParent=1;resizeLast=0;collapsible=1;marginBottom=0;rounded=0;shadow=0;strokeWidth=1;fontSize=16;" parent="WIyWlLk6GJQsqaUBKTNV-1" vertex="1">
          <mxGeometry x="1652" y="1267" width="260" height="294" as="geometry">
            <mxRectangle x="230" y="140" width="160" height="26" as="alternateBounds" />
          </mxGeometry>
        </mxCell>
        <mxCell id="KD26_EoCOuMA53v5xbRF-484" value="- maHD: String {id}" style="text;align=left;verticalAlign=top;spacingLeft=4;spacingRight=4;overflow=hidden;rotatable=0;points=[[0,0.5],[1,0.5]];portConstraint=eastwest;fontSize=16;" parent="KD26_EoCOuMA53v5xbRF-483" vertex="1">
          <mxGeometry y="26" width="260" height="26" as="geometry" />
        </mxCell>
        <mxCell id="KD26_EoCOuMA53v5xbRF-485" value="- maKH: StringÂ " style="text;align=left;verticalAlign=top;spacingLeft=4;spacingRight=4;overflow=hidden;rotatable=0;points=[[0,0.5],[1,0.5]];portConstraint=eastwest;rounded=0;shadow=0;html=0;fontSize=16;" parent="KD26_EoCOuMA53v5xbRF-483" vertex="1">
          <mxGeometry y="52" width="260" height="26" as="geometry" />
        </mxCell>
        <mxCell id="KD26_EoCOuMA53v5xbRF-486" value="- tenHD: String" style="text;align=left;verticalAlign=top;spacingLeft=4;spacingRight=4;overflow=hidden;rotatable=0;points=[[0,0.5],[1,0.5]];portConstraint=eastwest;rounded=0;shadow=0;html=0;fontSize=16;" parent="KD26_EoCOuMA53v5xbRF-483" vertex="1">
          <mxGeometry y="78" width="260" height="26" as="geometry" />
        </mxCell>
        <mxCell id="KD26_EoCOuMA53v5xbRF-487" value="- donGia: double" style="text;align=left;verticalAlign=top;spacingLeft=4;spacingRight=4;overflow=hidden;rotatable=0;points=[[0,0.5],[1,0.5]];portConstraint=eastwest;rounded=0;shadow=0;html=0;fontSize=16;" parent="KD26_EoCOuMA53v5xbRF-483" vertex="1">
          <mxGeometry y="104" width="260" height="26" as="geometry" />
        </mxCell>
        <mxCell id="KD26_EoCOuMA53v5xbRF-488" value="- ngayBatDau: LocalDate" style="text;align=left;verticalAlign=top;spacingLeft=4;spacingRight=4;overflow=hidden;rotatable=0;points=[[0,0.5],[1,0.5]];portConstraint=eastwest;rounded=0;shadow=0;html=0;fontSize=16;" parent="KD26_EoCOuMA53v5xbRF-483" vertex="1">
          <mxGeometry y="130" width="260" height="26" as="geometry" />
        </mxCell>
        <mxCell id="KD26_EoCOuMA53v5xbRF-493" value="- ngayKetThucDuKien: LocalDate" style="text;align=left;verticalAlign=top;spacingLeft=4;spacingRight=4;overflow=hidden;rotatable=0;points=[[0,0.5],[1,0.5]];portConstraint=eastwest;rounded=0;shadow=0;html=0;fontSize=16;" parent="KD26_EoCOuMA53v5xbRF-483" vertex="1">
          <mxGeometry y="156" width="260" height="26" as="geometry" />
        </mxCell>
        <mxCell id="KD26_EoCOuMA53v5xbRF-494" value="- trangThai: String" style="text;align=left;verticalAlign=top;spacingLeft=4;spacingRight=4;overflow=hidden;rotatable=0;points=[[0,0.5],[1,0.5]];portConstraint=eastwest;rounded=0;shadow=0;html=0;fontSize=16;" parent="KD26_EoCOuMA53v5xbRF-483" vertex="1">
          <mxGeometry y="182" width="260" height="26" as="geometry" />
        </mxCell>
        <mxCell id="KD26_EoCOuMA53v5xbRF-489" value="" style="line;html=1;strokeWidth=1;align=left;verticalAlign=middle;spacingTop=-1;spacingLeft=3;spacingRight=3;rotatable=0;labelPosition=right;points=[];portConstraint=eastwest;fontSize=16;" parent="KD26_EoCOuMA53v5xbRF-483" vertex="1">
          <mxGeometry y="208" width="260" height="8" as="geometry" />
        </mxCell>
        <mxCell id="KD26_EoCOuMA53v5xbRF-490" value="&lt;&lt;get()/set()&gt;&gt;" style="text;align=center;verticalAlign=top;spacingLeft=4;spacingRight=4;overflow=hidden;rotatable=0;points=[[0,0.5],[1,0.5]];portConstraint=eastwest;rounded=0;shadow=0;html=0;fontSize=16;" parent="KD26_EoCOuMA53v5xbRF-483" vertex="1">
          <mxGeometry y="216" width="260" height="26" as="geometry" />
        </mxCell>
        <mxCell id="KD26_EoCOuMA53v5xbRF-491" value="+ constructor()Â " style="text;align=left;verticalAlign=top;spacingLeft=4;spacingRight=4;overflow=hidden;rotatable=0;points=[[0,0.5],[1,0.5]];portConstraint=eastwest;fontSize=16;" parent="KD26_EoCOuMA53v5xbRF-483" vertex="1">
          <mxGeometry y="242" width="260" height="26" as="geometry" />
        </mxCell>
        <mxCell id="KD26_EoCOuMA53v5xbRF-492" value="+ toString(): String" style="text;align=left;verticalAlign=top;spacingLeft=4;spacingRight=4;overflow=hidden;rotatable=0;points=[[0,0.5],[1,0.5]];portConstraint=eastwest;fontSize=16;" parent="KD26_EoCOuMA53v5xbRF-483" vertex="1">
          <mxGeometry y="268" width="260" height="26" as="geometry" />
        </mxCell>
        <mxCell id="KD26_EoCOuMA53v5xbRF-511" value="KhachHang" style="swimlane;fontStyle=1;align=center;verticalAlign=top;childLayout=stackLayout;horizontal=1;startSize=26;horizontalStack=0;resizeParent=1;resizeLast=0;collapsible=1;marginBottom=0;rounded=0;shadow=0;strokeWidth=1;fontSize=16;" parent="WIyWlLk6GJQsqaUBKTNV-1" vertex="1">
          <mxGeometry x="2037" y="1267" width="217" height="250" as="geometry">
            <mxRectangle x="230" y="140" width="160" height="26" as="alternateBounds" />
          </mxGeometry>
        </mxCell>
        <mxCell id="KD26_EoCOuMA53v5xbRF-512" value="- maKH: String {id}" style="text;align=left;verticalAlign=top;spacingLeft=4;spacingRight=4;overflow=hidden;rotatable=0;points=[[0,0.5],[1,0.5]];portConstraint=eastwest;fontSize=16;" parent="KD26_EoCOuMA53v5xbRF-511" vertex="1">
          <mxGeometry y="26" width="217" height="26" as="geometry" />
        </mxCell>
        <mxCell id="KD26_EoCOuMA53v5xbRF-513" value="- tenKH: StringÂ " style="text;align=left;verticalAlign=top;spacingLeft=4;spacingRight=4;overflow=hidden;rotatable=0;points=[[0,0.5],[1,0.5]];portConstraint=eastwest;rounded=0;shadow=0;html=0;fontSize=16;" parent="KD26_EoCOuMA53v5xbRF-511" vertex="1">
          <mxGeometry y="52" width="217" height="26" as="geometry" />
        </mxCell>
        <mxCell id="KD26_EoCOuMA53v5xbRF-514" value="- toChuc: boolean" style="text;align=left;verticalAlign=top;spacingLeft=4;spacingRight=4;overflow=hidden;rotatable=0;points=[[0,0.5],[1,0.5]];portConstraint=eastwest;rounded=0;shadow=0;html=0;fontSize=16;" parent="KD26_EoCOuMA53v5xbRF-511" vertex="1">
          <mxGeometry y="78" width="217" height="26" as="geometry" />
        </mxCell>
        <mxCell id="KD26_EoCOuMA53v5xbRF-515" value="- email: String" style="text;align=left;verticalAlign=top;spacingLeft=4;spacingRight=4;overflow=hidden;rotatable=0;points=[[0,0.5],[1,0.5]];portConstraint=eastwest;rounded=0;shadow=0;html=0;fontSize=16;" parent="KD26_EoCOuMA53v5xbRF-511" vertex="1">
          <mxGeometry y="104" width="217" height="26" as="geometry" />
        </mxCell>
        <mxCell id="KD26_EoCOuMA53v5xbRF-516" value="- soDienThoai" style="text;align=left;verticalAlign=top;spacingLeft=4;spacingRight=4;overflow=hidden;rotatable=0;points=[[0,0.5],[1,0.5]];portConstraint=eastwest;rounded=0;shadow=0;html=0;fontSize=16;" parent="KD26_EoCOuMA53v5xbRF-511" vertex="1">
          <mxGeometry y="130" width="217" height="26" as="geometry" />
        </mxCell>
        <mxCell id="KD26_EoCOuMA53v5xbRF-519" value="" style="line;html=1;strokeWidth=1;align=left;verticalAlign=middle;spacingTop=-1;spacingLeft=3;spacingRight=3;rotatable=0;labelPosition=right;points=[];portConstraint=eastwest;fontSize=16;" parent="KD26_EoCOuMA53v5xbRF-511" vertex="1">
          <mxGeometry y="156" width="217" height="8" as="geometry" />
        </mxCell>
        <mxCell id="KD26_EoCOuMA53v5xbRF-520" value="&lt;&lt;get()/set()&gt;&gt;" style="text;align=center;verticalAlign=top;spacingLeft=4;spacingRight=4;overflow=hidden;rotatable=0;points=[[0,0.5],[1,0.5]];portConstraint=eastwest;rounded=0;shadow=0;html=0;fontSize=16;" parent="KD26_EoCOuMA53v5xbRF-511" vertex="1">
          <mxGeometry y="164" width="217" height="26" as="geometry" />
        </mxCell>
        <mxCell id="KD26_EoCOuMA53v5xbRF-521" value="+ constructor()Â " style="text;align=left;verticalAlign=top;spacingLeft=4;spacingRight=4;overflow=hidden;rotatable=0;points=[[0,0.5],[1,0.5]];portConstraint=eastwest;fontSize=16;" parent="KD26_EoCOuMA53v5xbRF-511" vertex="1">
          <mxGeometry y="190" width="217" height="26" as="geometry" />
        </mxCell>
        <mxCell id="KD26_EoCOuMA53v5xbRF-522" value="+ toString(): String" style="text;align=left;verticalAlign=top;spacingLeft=4;spacingRight=4;overflow=hidden;rotatable=0;points=[[0,0.5],[1,0.5]];portConstraint=eastwest;fontSize=16;" parent="KD26_EoCOuMA53v5xbRF-511" vertex="1">
          <mxGeometry y="216" width="217" height="26" as="geometry" />
        </mxCell>
        <mxCell id="KD26_EoCOuMA53v5xbRF-551" value="PhieuChamCong_1Ngay" style="swimlane;fontStyle=1;align=center;verticalAlign=top;childLayout=stackLayout;horizontal=1;startSize=26;horizontalStack=0;resizeParent=1;resizeLast=0;collapsible=1;marginBottom=0;rounded=0;shadow=0;strokeWidth=1;fontSize=16;" parent="WIyWlLk6GJQsqaUBKTNV-1" vertex="1">
          <mxGeometry x="2387" y="1260" width="217" height="294" as="geometry">
            <mxRectangle x="230" y="140" width="160" height="26" as="alternateBounds" />
          </mxGeometry>
        </mxCell>
        <mxCell id="KD26_EoCOuMA53v5xbRF-552" value="- maCN: String {id}" style="text;align=left;verticalAlign=top;spacingLeft=4;spacingRight=4;overflow=hidden;rotatable=0;points=[[0,0.5],[1,0.5]];portConstraint=eastwest;fontSize=16;" parent="KD26_EoCOuMA53v5xbRF-551" vertex="1">
          <mxGeometry y="26" width="217" height="26" as="geometry" />
        </mxCell>
        <mxCell id="KD26_EoCOuMA53v5xbRF-553" value="- ngay: localDate {id}" style="text;align=left;verticalAlign=top;spacingLeft=4;spacingRight=4;overflow=hidden;rotatable=0;points=[[0,0.5],[1,0.5]];portConstraint=eastwest;rounded=0;shadow=0;html=0;fontSize=16;" parent="KD26_EoCOuMA53v5xbRF-551" vertex="1">
          <mxGeometry y="52" width="217" height="26" as="geometry" />
        </mxCell>
        <mxCell id="KD26_EoCOuMA53v5xbRF-554" value="- soLuongSP: int" style="text;align=left;verticalAlign=top;spacingLeft=4;spacingRight=4;overflow=hidden;rotatable=0;points=[[0,0.5],[1,0.5]];portConstraint=eastwest;rounded=0;shadow=0;html=0;fontSize=16;" parent="KD26_EoCOuMA53v5xbRF-551" vertex="1">
          <mxGeometry y="78" width="217" height="26" as="geometry" />
        </mxCell>
        <mxCell id="KD26_EoCOuMA53v5xbRF-555" value="- noiDungPhat: String" style="text;align=left;verticalAlign=top;spacingLeft=4;spacingRight=4;overflow=hidden;rotatable=0;points=[[0,0.5],[1,0.5]];portConstraint=eastwest;rounded=0;shadow=0;html=0;fontSize=16;" parent="KD26_EoCOuMA53v5xbRF-551" vertex="1">
          <mxGeometry y="104" width="217" height="26" as="geometry" />
        </mxCell>
        <mxCell id="KD26_EoCOuMA53v5xbRF-556" value="- thuong: double" style="text;align=left;verticalAlign=top;spacingLeft=4;spacingRight=4;overflow=hidden;rotatable=0;points=[[0,0.5],[1,0.5]];portConstraint=eastwest;rounded=0;shadow=0;html=0;fontSize=16;" parent="KD26_EoCOuMA53v5xbRF-551" vertex="1">
          <mxGeometry y="130" width="217" height="26" as="geometry" />
        </mxCell>
        <mxCell id="KD26_EoCOuMA53v5xbRF-561" value="- phat: double" style="text;align=left;verticalAlign=top;spacingLeft=4;spacingRight=4;overflow=hidden;rotatable=0;points=[[0,0.5],[1,0.5]];portConstraint=eastwest;rounded=0;shadow=0;html=0;fontSize=16;" parent="KD26_EoCOuMA53v5xbRF-551" vertex="1">
          <mxGeometry y="156" width="217" height="26" as="geometry" />
        </mxCell>
        <mxCell id="KD26_EoCOuMA53v5xbRF-562" value="-Â  soLuongSPTangCa: int" style="text;align=left;verticalAlign=top;spacingLeft=4;spacingRight=4;overflow=hidden;rotatable=0;points=[[0,0.5],[1,0.5]];portConstraint=eastwest;rounded=0;shadow=0;html=0;fontSize=16;" parent="KD26_EoCOuMA53v5xbRF-551" vertex="1">
          <mxGeometry y="182" width="217" height="26" as="geometry" />
        </mxCell>
        <mxCell id="KD26_EoCOuMA53v5xbRF-557" value="" style="line;html=1;strokeWidth=1;align=left;verticalAlign=middle;spacingTop=-1;spacingLeft=3;spacingRight=3;rotatable=0;labelPosition=right;points=[];portConstraint=eastwest;fontSize=16;" parent="KD26_EoCOuMA53v5xbRF-551" vertex="1">
          <mxGeometry y="208" width="217" height="8" as="geometry" />
        </mxCell>
        <mxCell id="KD26_EoCOuMA53v5xbRF-558" value="&lt;&lt;get()/set()&gt;&gt;" style="text;align=center;verticalAlign=top;spacingLeft=4;spacingRight=4;overflow=hidden;rotatable=0;points=[[0,0.5],[1,0.5]];portConstraint=eastwest;rounded=0;shadow=0;html=0;fontSize=16;" parent="KD26_EoCOuMA53v5xbRF-551" vertex="1">
          <mxGeometry y="216" width="217" height="26" as="geometry" />
        </mxCell>
        <mxCell id="KD26_EoCOuMA53v5xbRF-559" value="+ constructor()Â " style="text;align=left;verticalAlign=top;spacingLeft=4;spacingRight=4;overflow=hidden;rotatable=0;points=[[0,0.5],[1,0.5]];portConstraint=eastwest;fontSize=16;" parent="KD26_EoCOuMA53v5xbRF-551" vertex="1">
          <mxGeometry y="242" width="217" height="26" as="geometry" />
        </mxCell>
        <mxCell id="KD26_EoCOuMA53v5xbRF-560" value="+ toString(): String" style="text;align=left;verticalAlign=top;spacingLeft=4;spacingRight=4;overflow=hidden;rotatable=0;points=[[0,0.5],[1,0.5]];portConstraint=eastwest;fontSize=16;" parent="KD26_EoCOuMA53v5xbRF-551" vertex="1">
          <mxGeometry y="268" width="217" height="26" as="geometry" />
        </mxCell>
        <mxCell id="KD26_EoCOuMA53v5xbRF-573" value="CongDoanTienQuyet" style="swimlane;fontStyle=1;align=center;verticalAlign=top;childLayout=stackLayout;horizontal=1;startSize=26;horizontalStack=0;resizeParent=1;resizeLast=0;collapsible=1;marginBottom=0;rounded=0;shadow=0;strokeWidth=1;fontSize=16;" parent="WIyWlLk6GJQsqaUBKTNV-1" vertex="1">
          <mxGeometry x="1053" y="985" width="217" height="190" as="geometry">
            <mxRectangle x="230" y="140" width="160" height="26" as="alternateBounds" />
          </mxGeometry>
        </mxCell>
        <mxCell id="KD26_EoCOuMA53v5xbRF-574" value="- maCD: String {id}" style="text;align=left;verticalAlign=top;spacingLeft=4;spacingRight=4;overflow=hidden;rotatable=0;points=[[0,0.5],[1,0.5]];portConstraint=eastwest;fontSize=16;" parent="KD26_EoCOuMA53v5xbRF-573" vertex="1">
          <mxGeometry y="26" width="217" height="26" as="geometry" />
        </mxCell>
        <mxCell id="KD26_EoCOuMA53v5xbRF-583" value="- maCDTQ: String {id}" style="text;align=left;verticalAlign=top;spacingLeft=4;spacingRight=4;overflow=hidden;rotatable=0;points=[[0,0.5],[1,0.5]];portConstraint=eastwest;rounded=0;shadow=0;html=0;fontSize=16;" parent="KD26_EoCOuMA53v5xbRF-573" vertex="1">
          <mxGeometry y="52" width="217" height="26" as="geometry" />
        </mxCell>
        <mxCell id="KD26_EoCOuMA53v5xbRF-575" value="- soLuongToiThieu" style="text;align=left;verticalAlign=top;spacingLeft=4;spacingRight=4;overflow=hidden;rotatable=0;points=[[0,0.5],[1,0.5]];portConstraint=eastwest;rounded=0;shadow=0;html=0;fontSize=16;" parent="KD26_EoCOuMA53v5xbRF-573" vertex="1">
          <mxGeometry y="78" width="217" height="26" as="geometry" />
        </mxCell>
        <mxCell id="KD26_EoCOuMA53v5xbRF-579" value="" style="line;html=1;strokeWidth=1;align=left;verticalAlign=middle;spacingTop=-1;spacingLeft=3;spacingRight=3;rotatable=0;labelPosition=right;points=[];portConstraint=eastwest;fontSize=16;" parent="KD26_EoCOuMA53v5xbRF-573" vertex="1">
          <mxGeometry y="104" width="217" height="8" as="geometry" />
        </mxCell>
        <mxCell id="KD26_EoCOuMA53v5xbRF-580" value="&lt;&lt;get()/set()&gt;&gt;" style="text;align=center;verticalAlign=top;spacingLeft=4;spacingRight=4;overflow=hidden;rotatable=0;points=[[0,0.5],[1,0.5]];portConstraint=eastwest;rounded=0;shadow=0;html=0;fontSize=16;" parent="KD26_EoCOuMA53v5xbRF-573" vertex="1">
          <mxGeometry y="112" width="217" height="26" as="geometry" />
        </mxCell>
        <mxCell id="KD26_EoCOuMA53v5xbRF-581" value="+ constructor()Â " style="text;align=left;verticalAlign=top;spacingLeft=4;spacingRight=4;overflow=hidden;rotatable=0;points=[[0,0.5],[1,0.5]];portConstraint=eastwest;fontSize=16;" parent="KD26_EoCOuMA53v5xbRF-573" vertex="1">
          <mxGeometry y="138" width="217" height="26" as="geometry" />
        </mxCell>
        <mxCell id="KD26_EoCOuMA53v5xbRF-582" value="+ toString(): String" style="text;align=left;verticalAlign=top;spacingLeft=4;spacingRight=4;overflow=hidden;rotatable=0;points=[[0,0.5],[1,0.5]];portConstraint=eastwest;fontSize=16;" parent="KD26_EoCOuMA53v5xbRF-573" vertex="1">
          <mxGeometry y="164" width="217" height="26" as="geometry" />
        </mxCell>
        <mxCell id="KD26_EoCOuMA53v5xbRF-600" value="CongDoan" style="swimlane;fontStyle=1;align=center;verticalAlign=top;childLayout=stackLayout;horizontal=1;startSize=26;horizontalStack=0;resizeParent=1;resizeLast=0;collapsible=1;marginBottom=0;rounded=0;shadow=0;strokeWidth=1;fontSize=16;" parent="WIyWlLk6GJQsqaUBKTNV-1" vertex="1">
          <mxGeometry x="1660" y="1637" width="217" height="242" as="geometry">
            <mxRectangle x="230" y="140" width="160" height="26" as="alternateBounds" />
          </mxGeometry>
        </mxCell>
        <mxCell id="KD26_EoCOuMA53v5xbRF-601" value="- maCD: String {id}" style="text;align=left;verticalAlign=top;spacingLeft=4;spacingRight=4;overflow=hidden;rotatable=0;points=[[0,0.5],[1,0.5]];portConstraint=eastwest;fontSize=16;" parent="KD26_EoCOuMA53v5xbRF-600" vertex="1">
          <mxGeometry y="26" width="217" height="26" as="geometry" />
        </mxCell>
        <mxCell id="KD26_EoCOuMA53v5xbRF-608" value="- maSP: StringÂ " style="text;align=left;verticalAlign=top;spacingLeft=4;spacingRight=4;overflow=hidden;rotatable=0;points=[[0,0.5],[1,0.5]];portConstraint=eastwest;fontSize=16;" parent="KD26_EoCOuMA53v5xbRF-600" vertex="1">
          <mxGeometry y="52" width="217" height="26" as="geometry" />
        </mxCell>
        <mxCell id="KD26_EoCOuMA53v5xbRF-609" value="- tenCD: StringÂ " style="text;align=left;verticalAlign=top;spacingLeft=4;spacingRight=4;overflow=hidden;rotatable=0;points=[[0,0.5],[1,0.5]];portConstraint=eastwest;fontSize=16;" parent="KD26_EoCOuMA53v5xbRF-600" vertex="1">
          <mxGeometry y="78" width="217" height="26" as="geometry" />
        </mxCell>
        <mxCell id="KD26_EoCOuMA53v5xbRF-610" value="- donGia: double" style="text;align=left;verticalAlign=top;spacingLeft=4;spacingRight=4;overflow=hidden;rotatable=0;points=[[0,0.5],[1,0.5]];portConstraint=eastwest;fontSize=16;" parent="KD26_EoCOuMA53v5xbRF-600" vertex="1">
          <mxGeometry y="104" width="217" height="26" as="geometry" />
        </mxCell>
        <mxCell id="KD26_EoCOuMA53v5xbRF-611" value="- trangThai: boolean" style="text;align=left;verticalAlign=top;spacingLeft=4;spacingRight=4;overflow=hidden;rotatable=0;points=[[0,0.5],[1,0.5]];portConstraint=eastwest;fontSize=16;" parent="KD26_EoCOuMA53v5xbRF-600" vertex="1">
          <mxGeometry y="130" width="217" height="26" as="geometry" />
        </mxCell>
        <mxCell id="KD26_EoCOuMA53v5xbRF-604" value="" style="line;html=1;strokeWidth=1;align=left;verticalAlign=middle;spacingTop=-1;spacingLeft=3;spacingRight=3;rotatable=0;labelPosition=right;points=[];portConstraint=eastwest;fontSize=16;" parent="KD26_EoCOuMA53v5xbRF-600" vertex="1">
          <mxGeometry y="156" width="217" height="8" as="geometry" />
        </mxCell>
        <mxCell id="KD26_EoCOuMA53v5xbRF-605" value="&lt;&lt;get()/set()&gt;&gt;" style="text;align=center;verticalAlign=top;spacingLeft=4;spacingRight=4;overflow=hidden;rotatable=0;points=[[0,0.5],[1,0.5]];portConstraint=eastwest;rounded=0;shadow=0;html=0;fontSize=16;" parent="KD26_EoCOuMA53v5xbRF-600" vertex="1">
          <mxGeometry y="164" width="217" height="26" as="geometry" />
        </mxCell>
        <mxCell id="KD26_EoCOuMA53v5xbRF-606" value="+ constructor()Â " style="text;align=left;verticalAlign=top;spacingLeft=4;spacingRight=4;overflow=hidden;rotatable=0;points=[[0,0.5],[1,0.5]];portConstraint=eastwest;fontSize=16;" parent="KD26_EoCOuMA53v5xbRF-600" vertex="1">
          <mxGeometry y="190" width="217" height="26" as="geometry" />
        </mxCell>
        <mxCell id="KD26_EoCOuMA53v5xbRF-607" value="+ toString(): String" style="text;align=left;verticalAlign=top;spacingLeft=4;spacingRight=4;overflow=hidden;rotatable=0;points=[[0,0.5],[1,0.5]];portConstraint=eastwest;fontSize=16;" parent="KD26_EoCOuMA53v5xbRF-600" vertex="1">
          <mxGeometry y="216" width="217" height="26" as="geometry" />
        </mxCell>
        <mxCell id="KD26_EoCOuMA53v5xbRF-625" value="ChiTietPhanCong" style="swimlane;fontStyle=1;align=center;verticalAlign=top;childLayout=stackLayout;horizontal=1;startSize=26;horizontalStack=0;resizeParent=1;resizeLast=0;collapsible=1;marginBottom=0;rounded=0;shadow=0;strokeWidth=1;fontSize=16;" parent="WIyWlLk6GJQsqaUBKTNV-1" vertex="1">
          <mxGeometry x="2022" y="1632" width="225" height="221" as="geometry">
            <mxRectangle x="230" y="140" width="160" height="26" as="alternateBounds" />
          </mxGeometry>
        </mxCell>
        <mxCell id="KD26_EoCOuMA53v5xbRF-626" value="- maCN: String {id}" style="text;align=left;verticalAlign=top;spacingLeft=4;spacingRight=4;overflow=hidden;rotatable=0;points=[[0,0.5],[1,0.5]];portConstraint=eastwest;fontSize=16;" parent="KD26_EoCOuMA53v5xbRF-625" vertex="1">
          <mxGeometry y="26" width="225" height="26" as="geometry" />
        </mxCell>
        <mxCell id="KD26_EoCOuMA53v5xbRF-627" value="- maCD: String {id}" style="text;align=left;verticalAlign=top;spacingLeft=4;spacingRight=4;overflow=hidden;rotatable=0;points=[[0,0.5],[1,0.5]];portConstraint=eastwest;fontSize=16;" parent="KD26_EoCOuMA53v5xbRF-625" vertex="1">
          <mxGeometry y="52" width="225" height="26" as="geometry" />
        </mxCell>
        <mxCell id="KD26_EoCOuMA53v5xbRF-628" value="- ngayPhanCong: LocalDate" style="text;align=left;verticalAlign=top;spacingLeft=4;spacingRight=4;overflow=hidden;rotatable=0;points=[[0,0.5],[1,0.5]];portConstraint=eastwest;fontSize=16;" parent="KD26_EoCOuMA53v5xbRF-625" vertex="1">
          <mxGeometry y="78" width="225" height="26" as="geometry" />
        </mxCell>
        <mxCell id="KD26_EoCOuMA53v5xbRF-629" value="- trangThai: boolean" style="text;align=left;verticalAlign=top;spacingLeft=4;spacingRight=4;overflow=hidden;rotatable=0;points=[[0,0.5],[1,0.5]];portConstraint=eastwest;fontSize=16;" parent="KD26_EoCOuMA53v5xbRF-625" vertex="1">
          <mxGeometry y="104" width="225" height="26" as="geometry" />
        </mxCell>
        <mxCell id="KD26_EoCOuMA53v5xbRF-631" value="" style="line;html=1;strokeWidth=1;align=left;verticalAlign=middle;spacingTop=-1;spacingLeft=3;spacingRight=3;rotatable=0;labelPosition=right;points=[];portConstraint=eastwest;fontSize=16;" parent="KD26_EoCOuMA53v5xbRF-625" vertex="1">
          <mxGeometry y="130" width="225" height="8" as="geometry" />
        </mxCell>
        <mxCell id="KD26_EoCOuMA53v5xbRF-632" value="&lt;&lt;get()/set()&gt;&gt;" style="text;align=center;verticalAlign=top;spacingLeft=4;spacingRight=4;overflow=hidden;rotatable=0;points=[[0,0.5],[1,0.5]];portConstraint=eastwest;rounded=0;shadow=0;html=0;fontSize=16;" parent="KD26_EoCOuMA53v5xbRF-625" vertex="1">
          <mxGeometry y="138" width="225" height="26" as="geometry" />
        </mxCell>
        <mxCell id="KD26_EoCOuMA53v5xbRF-633" value="+ constructor()Â " style="text;align=left;verticalAlign=top;spacingLeft=4;spacingRight=4;overflow=hidden;rotatable=0;points=[[0,0.5],[1,0.5]];portConstraint=eastwest;fontSize=16;" parent="KD26_EoCOuMA53v5xbRF-625" vertex="1">
          <mxGeometry y="164" width="225" height="26" as="geometry" />
        </mxCell>
        <mxCell id="KD26_EoCOuMA53v5xbRF-634" value="+ toString(): String" style="text;align=left;verticalAlign=top;spacingLeft=4;spacingRight=4;overflow=hidden;rotatable=0;points=[[0,0.5],[1,0.5]];portConstraint=eastwest;fontSize=16;" parent="KD26_EoCOuMA53v5xbRF-625" vertex="1">
          <mxGeometry y="190" width="225" height="26" as="geometry" />
        </mxCell>
        <mxCell id="KD26_EoCOuMA53v5xbRF-660" value="CongNhan" style="swimlane;fontStyle=1;align=center;verticalAlign=top;childLayout=stackLayout;horizontal=1;startSize=26;horizontalStack=0;resizeParent=1;resizeLast=0;collapsible=1;marginBottom=0;rounded=0;shadow=0;strokeWidth=1;fontSize=16;" parent="WIyWlLk6GJQsqaUBKTNV-1" vertex="1">
          <mxGeometry x="2382" y="1627" width="233" height="320" as="geometry">
            <mxRectangle x="230" y="140" width="160" height="26" as="alternateBounds" />
          </mxGeometry>
        </mxCell>
        <mxCell id="KD26_EoCOuMA53v5xbRF-661" value="- maCN: String {id}" style="text;align=left;verticalAlign=top;spacingLeft=4;spacingRight=4;overflow=hidden;rotatable=0;points=[[0,0.5],[1,0.5]];portConstraint=eastwest;fontSize=16;" parent="KD26_EoCOuMA53v5xbRF-660" vertex="1">
          <mxGeometry y="26" width="233" height="26" as="geometry" />
        </mxCell>
        <mxCell id="KD26_EoCOuMA53v5xbRF-662" value="- tenCN: String {id}" style="text;align=left;verticalAlign=top;spacingLeft=4;spacingRight=4;overflow=hidden;rotatable=0;points=[[0,0.5],[1,0.5]];portConstraint=eastwest;fontSize=16;" parent="KD26_EoCOuMA53v5xbRF-660" vertex="1">
          <mxGeometry y="52" width="233" height="26" as="geometry" />
        </mxCell>
        <mxCell id="KD26_EoCOuMA53v5xbRF-663" value="- gioiTinh: boolean" style="text;align=left;verticalAlign=top;spacingLeft=4;spacingRight=4;overflow=hidden;rotatable=0;points=[[0,0.5],[1,0.5]];portConstraint=eastwest;fontSize=16;" parent="KD26_EoCOuMA53v5xbRF-660" vertex="1">
          <mxGeometry y="78" width="233" height="26" as="geometry" />
        </mxCell>
        <mxCell id="KD26_EoCOuMA53v5xbRF-664" value="- ngaySinh: LocalDate" style="text;align=left;verticalAlign=top;spacingLeft=4;spacingRight=4;overflow=hidden;rotatable=0;points=[[0,0.5],[1,0.5]];portConstraint=eastwest;fontSize=16;" parent="KD26_EoCOuMA53v5xbRF-660" vertex="1">
          <mxGeometry y="104" width="233" height="26" as="geometry" />
        </mxCell>
        <mxCell id="KD26_EoCOuMA53v5xbRF-669" value="- ngayBatDauLam: LocalDate" style="text;align=left;verticalAlign=top;spacingLeft=4;spacingRight=4;overflow=hidden;rotatable=0;points=[[0,0.5],[1,0.5]];portConstraint=eastwest;fontSize=16;" parent="KD26_EoCOuMA53v5xbRF-660" vertex="1">
          <mxGeometry y="130" width="233" height="26" as="geometry" />
        </mxCell>
        <mxCell id="KD26_EoCOuMA53v5xbRF-670" value="- CCCD; String" style="text;align=left;verticalAlign=top;spacingLeft=4;spacingRight=4;overflow=hidden;rotatable=0;points=[[0,0.5],[1,0.5]];portConstraint=eastwest;fontSize=16;" parent="KD26_EoCOuMA53v5xbRF-660" vertex="1">
          <mxGeometry y="156" width="233" height="26" as="geometry" />
        </mxCell>
        <mxCell id="KD26_EoCOuMA53v5xbRF-671" value="- trangThai: boolean" style="text;align=left;verticalAlign=top;spacingLeft=4;spacingRight=4;overflow=hidden;rotatable=0;points=[[0,0.5],[1,0.5]];portConstraint=eastwest;fontSize=16;" parent="KD26_EoCOuMA53v5xbRF-660" vertex="1">
          <mxGeometry y="182" width="233" height="26" as="geometry" />
        </mxCell>
        <mxCell id="KD26_EoCOuMA53v5xbRF-672" value="- choPhanCong: boolean" style="text;align=left;verticalAlign=top;spacingLeft=4;spacingRight=4;overflow=hidden;rotatable=0;points=[[0,0.5],[1,0.5]];portConstraint=eastwest;fontSize=16;" parent="KD26_EoCOuMA53v5xbRF-660" vertex="1">
          <mxGeometry y="208" width="233" height="26" as="geometry" />
        </mxCell>
        <mxCell id="KD26_EoCOuMA53v5xbRF-665" value="" style="line;html=1;strokeWidth=1;align=left;verticalAlign=middle;spacingTop=-1;spacingLeft=3;spacingRight=3;rotatable=0;labelPosition=right;points=[];portConstraint=eastwest;fontSize=16;" parent="KD26_EoCOuMA53v5xbRF-660" vertex="1">
          <mxGeometry y="234" width="233" height="8" as="geometry" />
        </mxCell>
        <mxCell id="KD26_EoCOuMA53v5xbRF-666" value="&lt;&lt;get()/set()&gt;&gt;" style="text;align=center;verticalAlign=top;spacingLeft=4;spacingRight=4;overflow=hidden;rotatable=0;points=[[0,0.5],[1,0.5]];portConstraint=eastwest;rounded=0;shadow=0;html=0;fontSize=16;" parent="KD26_EoCOuMA53v5xbRF-660" vertex="1">
          <mxGeometry y="242" width="233" height="26" as="geometry" />
        </mxCell>
        <mxCell id="KD26_EoCOuMA53v5xbRF-667" value="+ constructor()Â " style="text;align=left;verticalAlign=top;spacingLeft=4;spacingRight=4;overflow=hidden;rotatable=0;points=[[0,0.5],[1,0.5]];portConstraint=eastwest;fontSize=16;" parent="KD26_EoCOuMA53v5xbRF-660" vertex="1">
          <mxGeometry y="268" width="233" height="26" as="geometry" />
        </mxCell>
        <mxCell id="KD26_EoCOuMA53v5xbRF-668" value="+ toString(): String" style="text;align=left;verticalAlign=top;spacingLeft=4;spacingRight=4;overflow=hidden;rotatable=0;points=[[0,0.5],[1,0.5]];portConstraint=eastwest;fontSize=16;" parent="KD26_EoCOuMA53v5xbRF-660" vertex="1">
          <mxGeometry y="294" width="233" height="26" as="geometry" />
        </mxCell>
        <mxCell id="peWEARGx3W2LzcHwOtgo-64" style="edgeStyle=orthogonalEdgeStyle;rounded=0;orthogonalLoop=1;jettySize=auto;html=1;fontSize=16;" parent="WIyWlLk6GJQsqaUBKTNV-1" source="peWEARGx3W2LzcHwOtgo-0" edge="1">
          <mxGeometry relative="1" as="geometry">
            <mxPoint x="-989" y="1166" as="targetPoint" />
            <Array as="points">
              <mxPoint x="-1021" y="1166" />
              <mxPoint x="-1021" y="1166" />
            </Array>
          </mxGeometry>
        </mxCell>
        <mxCell id="peWEARGx3W2LzcHwOtgo-0" value="&lt;&lt;boundary&gt;&gt;&#xa;Login" style="swimlane;fontStyle=1;align=center;verticalAlign=top;childLayout=stackLayout;horizontal=1;startSize=49;horizontalStack=0;resizeParent=1;resizeLast=0;collapsible=1;marginBottom=0;rounded=0;shadow=0;strokeWidth=1;fontSize=16;" parent="WIyWlLk6GJQsqaUBKTNV-1" vertex="1">
          <mxGeometry x="-1334" y="1109" width="284" height="88" as="geometry">
            <mxRectangle x="230" y="140" width="160" height="26" as="alternateBounds" />
          </mxGeometry>
        </mxCell>
        <mxCell id="peWEARGx3W2LzcHwOtgo-77" value="+login()" style="text;align=left;verticalAlign=top;spacingLeft=4;spacingRight=4;overflow=hidden;rotatable=0;points=[[0,0.5],[1,0.5]];portConstraint=eastwest;fontSize=16;" parent="peWEARGx3W2LzcHwOtgo-0" vertex="1">
          <mxGeometry y="49" width="284" height="26" as="geometry" />
        </mxCell>
        <mxCell id="peWEARGx3W2LzcHwOtgo-65" style="edgeStyle=orthogonalEdgeStyle;rounded=0;orthogonalLoop=1;jettySize=auto;html=1;entryX=0;entryY=0.5;entryDx=0;entryDy=0;fontSize=16;" parent="WIyWlLk6GJQsqaUBKTNV-1" source="peWEARGx3W2LzcHwOtgo-46" target="peWEARGx3W2LzcHwOtgo-47" edge="1">
          <mxGeometry relative="1" as="geometry">
            <Array as="points">
              <mxPoint x="-847" y="867" />
            </Array>
          </mxGeometry>
        </mxCell>
        <mxCell id="peWEARGx3W2LzcHwOtgo-66" style="edgeStyle=orthogonalEdgeStyle;rounded=0;orthogonalLoop=1;jettySize=auto;html=1;entryX=0;entryY=0.5;entryDx=0;entryDy=0;fontSize=16;" parent="WIyWlLk6GJQsqaUBKTNV-1" source="peWEARGx3W2LzcHwOtgo-46" target="peWEARGx3W2LzcHwOtgo-48" edge="1">
          <mxGeometry relative="1" as="geometry">
            <Array as="points">
              <mxPoint x="-847" y="1370" />
              <mxPoint x="-577" y="1370" />
            </Array>
          </mxGeometry>
        </mxCell>
        <mxCell id="peWEARGx3W2LzcHwOtgo-46" value="&lt;&lt;boundary&gt;&gt;&#xa;GD_Chinh" style="swimlane;fontStyle=1;align=center;verticalAlign=top;childLayout=stackLayout;horizontal=1;startSize=49;horizontalStack=0;resizeParent=1;resizeLast=0;collapsible=1;marginBottom=0;rounded=0;shadow=0;strokeWidth=1;fontSize=16;" parent="WIyWlLk6GJQsqaUBKTNV-1" vertex="1">
          <mxGeometry x="-989" y="1062" width="284" height="131" as="geometry">
            <mxRectangle x="230" y="140" width="160" height="26" as="alternateBounds" />
          </mxGeometry>
        </mxCell>
        <mxCell id="peWEARGx3W2LzcHwOtgo-78" value="+showGD_QLTK()" style="text;align=left;verticalAlign=top;spacingLeft=4;spacingRight=4;overflow=hidden;rotatable=0;points=[[0,0.5],[1,0.5]];portConstraint=eastwest;fontSize=16;" parent="peWEARGx3W2LzcHwOtgo-46" vertex="1">
          <mxGeometry y="49" width="284" height="26" as="geometry" />
        </mxCell>
        <mxCell id="peWEARGx3W2LzcHwOtgo-79" value="+showGD_ChamCong()" style="text;align=left;verticalAlign=top;spacingLeft=4;spacingRight=4;overflow=hidden;rotatable=0;points=[[0,0.5],[1,0.5]];portConstraint=eastwest;fontSize=16;" parent="peWEARGx3W2LzcHwOtgo-46" vertex="1">
          <mxGeometry y="75" width="284" height="26" as="geometry" />
        </mxCell>
        <mxCell id="891bXy2E5K4bELxM3DLC-61" value="+ ShowGD_HopDong()" style="text;strokeColor=none;fillColor=none;align=left;verticalAlign=top;spacingLeft=4;spacingRight=4;overflow=hidden;rotatable=0;points=[[0,0.5],[1,0.5]];portConstraint=eastwest;whiteSpace=wrap;html=1;fontSize=16;" parent="peWEARGx3W2LzcHwOtgo-46" vertex="1">
          <mxGeometry y="101" width="284" height="26" as="geometry" />
        </mxCell>
        <mxCell id="peWEARGx3W2LzcHwOtgo-74" style="edgeStyle=orthogonalEdgeStyle;rounded=0;orthogonalLoop=1;jettySize=auto;html=1;entryX=0;entryY=0.5;entryDx=0;entryDy=0;fontSize=16;" parent="WIyWlLk6GJQsqaUBKTNV-1" source="peWEARGx3W2LzcHwOtgo-47" target="peWEARGx3W2LzcHwOtgo-49" edge="1">
          <mxGeometry relative="1" as="geometry">
            <mxPoint x="-116.99996948242188" y="871.5" as="targetPoint" />
            <Array as="points">
              <mxPoint x="-194" y="866" />
            </Array>
          </mxGeometry>
        </mxCell>
        <mxCell id="peWEARGx3W2LzcHwOtgo-47" value="&lt;&lt;boundary&gt;&gt;&#xa;GD_QLTK" style="swimlane;fontStyle=1;align=center;verticalAlign=top;childLayout=stackLayout;horizontal=1;startSize=49;horizontalStack=0;resizeParent=1;resizeLast=0;collapsible=1;marginBottom=0;rounded=0;shadow=0;strokeWidth=1;fontSize=16;" parent="WIyWlLk6GJQsqaUBKTNV-1" vertex="1">
          <mxGeometry x="-576" y="741" width="284" height="163" as="geometry">
            <mxRectangle x="230" y="140" width="160" height="26" as="alternateBounds" />
          </mxGeometry>
        </mxCell>
        <mxCell id="peWEARGx3W2LzcHwOtgo-81" value="+taoTaiKhoan()" style="text;align=left;verticalAlign=top;spacingLeft=4;spacingRight=4;overflow=hidden;rotatable=0;points=[[0,0.5],[1,0.5]];portConstraint=eastwest;fontSize=16;" parent="peWEARGx3W2LzcHwOtgo-47" vertex="1">
          <mxGeometry y="49" width="284" height="26" as="geometry" />
        </mxCell>
        <mxCell id="peWEARGx3W2LzcHwOtgo-83" value="+timTaiKhoan()" style="text;align=left;verticalAlign=top;spacingLeft=4;spacingRight=4;overflow=hidden;rotatable=0;points=[[0,0.5],[1,0.5]];portConstraint=eastwest;fontSize=16;" parent="peWEARGx3W2LzcHwOtgo-47" vertex="1">
          <mxGeometry y="75" width="284" height="26" as="geometry" />
        </mxCell>
        <mxCell id="peWEARGx3W2LzcHwOtgo-85" value="+capNhatThongTinTaiKhoan" style="text;align=left;verticalAlign=top;spacingLeft=4;spacingRight=4;overflow=hidden;rotatable=0;points=[[0,0.5],[1,0.5]];portConstraint=eastwest;fontSize=16;" parent="peWEARGx3W2LzcHwOtgo-47" vertex="1">
          <mxGeometry y="101" width="284" height="26" as="geometry" />
        </mxCell>
        <mxCell id="peWEARGx3W2LzcHwOtgo-87" value="+xoaTaiKhoan()" style="text;align=left;verticalAlign=top;spacingLeft=4;spacingRight=4;overflow=hidden;rotatable=0;points=[[0,0.5],[1,0.5]];portConstraint=eastwest;fontSize=16;" parent="peWEARGx3W2LzcHwOtgo-47" vertex="1">
          <mxGeometry y="127" width="284" height="26" as="geometry" />
        </mxCell>
        <mxCell id="peWEARGx3W2LzcHwOtgo-68" style="edgeStyle=orthogonalEdgeStyle;rounded=0;orthogonalLoop=1;jettySize=auto;html=1;entryX=0;entryY=0.5;entryDx=0;entryDy=0;fontSize=16;" parent="WIyWlLk6GJQsqaUBKTNV-1" source="peWEARGx3W2LzcHwOtgo-48" target="peWEARGx3W2LzcHwOtgo-53" edge="1">
          <mxGeometry relative="1" as="geometry" />
        </mxCell>
        <mxCell id="peWEARGx3W2LzcHwOtgo-69" style="edgeStyle=orthogonalEdgeStyle;rounded=0;orthogonalLoop=1;jettySize=auto;html=1;entryX=0;entryY=0.5;entryDx=0;entryDy=0;fontSize=16;" parent="WIyWlLk6GJQsqaUBKTNV-1" source="peWEARGx3W2LzcHwOtgo-48" target="peWEARGx3W2LzcHwOtgo-54" edge="1">
          <mxGeometry relative="1" as="geometry" />
        </mxCell>
        <mxCell id="peWEARGx3W2LzcHwOtgo-48" value="&lt;&lt;boundary&gt;&gt;&#xa;GD_ChamCong" style="swimlane;fontStyle=1;align=center;verticalAlign=top;childLayout=stackLayout;horizontal=1;startSize=49;horizontalStack=0;resizeParent=1;resizeLast=0;collapsible=1;marginBottom=0;rounded=0;shadow=0;strokeWidth=1;fontSize=16;" parent="WIyWlLk6GJQsqaUBKTNV-1" vertex="1">
          <mxGeometry x="-565" y="1241" width="304" height="174" as="geometry">
            <mxRectangle x="230" y="140" width="160" height="26" as="alternateBounds" />
          </mxGeometry>
        </mxCell>
        <mxCell id="peWEARGx3W2LzcHwOtgo-89" value="+showDanhSachChamCongNhanVien()" style="text;align=left;verticalAlign=top;spacingLeft=4;spacingRight=4;overflow=hidden;rotatable=0;points=[[0,0.5],[1,0.5]];portConstraint=eastwest;fontSize=16;" parent="peWEARGx3W2LzcHwOtgo-48" vertex="1">
          <mxGeometry y="49" width="304" height="26" as="geometry" />
        </mxCell>
        <mxCell id="peWEARGx3W2LzcHwOtgo-90" value="+showDanhSachChamCongCongNhan()" style="text;align=left;verticalAlign=top;spacingLeft=4;spacingRight=4;overflow=hidden;rotatable=0;points=[[0,0.5],[1,0.5]];portConstraint=eastwest;fontSize=16;" parent="peWEARGx3W2LzcHwOtgo-48" vertex="1">
          <mxGeometry y="75" width="304" height="26" as="geometry" />
        </mxCell>
        <mxCell id="peWEARGx3W2LzcHwOtgo-96" value="+chamCongNhanVienHanhChinh()" style="text;align=left;verticalAlign=top;spacingLeft=4;spacingRight=4;overflow=hidden;rotatable=0;points=[[0,0.5],[1,0.5]];portConstraint=eastwest;fontSize=16;" parent="peWEARGx3W2LzcHwOtgo-48" vertex="1">
          <mxGeometry y="101" width="304" height="26" as="geometry" />
        </mxCell>
        <mxCell id="peWEARGx3W2LzcHwOtgo-97" value="+chamCongCongNhan()" style="text;align=left;verticalAlign=top;spacingLeft=4;spacingRight=4;overflow=hidden;rotatable=0;points=[[0,0.5],[1,0.5]];portConstraint=eastwest;fontSize=16;" parent="peWEARGx3W2LzcHwOtgo-48" vertex="1">
          <mxGeometry y="127" width="304" height="26" as="geometry" />
        </mxCell>
        <mxCell id="peWEARGx3W2LzcHwOtgo-80" style="edgeStyle=orthogonalEdgeStyle;rounded=0;orthogonalLoop=1;jettySize=auto;html=1;entryX=0.5;entryY=0;entryDx=0;entryDy=0;fontSize=16;" parent="WIyWlLk6GJQsqaUBKTNV-1" source="peWEARGx3W2LzcHwOtgo-49" target="KD26_EoCOuMA53v5xbRF-379" edge="1">
          <mxGeometry relative="1" as="geometry">
            <Array as="points">
              <mxPoint x="35" y="541" />
              <mxPoint x="2130" y="541" />
            </Array>
          </mxGeometry>
        </mxCell>
        <mxCell id="peWEARGx3W2LzcHwOtgo-49" value="&lt;&lt;control&gt;&gt;&#xa;DAO_TaiKhoan" style="swimlane;fontStyle=1;align=center;verticalAlign=top;childLayout=stackLayout;horizontal=1;startSize=49;horizontalStack=0;resizeParent=1;resizeLast=0;collapsible=1;marginBottom=0;rounded=0;shadow=0;strokeWidth=1;fontSize=16;" parent="WIyWlLk6GJQsqaUBKTNV-1" vertex="1">
          <mxGeometry x="-107" y="736" width="284" height="164" as="geometry">
            <mxRectangle x="230" y="140" width="160" height="26" as="alternateBounds" />
          </mxGeometry>
        </mxCell>
        <mxCell id="peWEARGx3W2LzcHwOtgo-82" value="+taoTaiKhoan()" style="text;align=left;verticalAlign=top;spacingLeft=4;spacingRight=4;overflow=hidden;rotatable=0;points=[[0,0.5],[1,0.5]];portConstraint=eastwest;fontSize=16;" parent="peWEARGx3W2LzcHwOtgo-49" vertex="1">
          <mxGeometry y="49" width="284" height="26" as="geometry" />
        </mxCell>
        <mxCell id="peWEARGx3W2LzcHwOtgo-84" value="+timTaiKhoan()" style="text;align=left;verticalAlign=top;spacingLeft=4;spacingRight=4;overflow=hidden;rotatable=0;points=[[0,0.5],[1,0.5]];portConstraint=eastwest;fontSize=16;" parent="peWEARGx3W2LzcHwOtgo-49" vertex="1">
          <mxGeometry y="75" width="284" height="26" as="geometry" />
        </mxCell>
        <mxCell id="peWEARGx3W2LzcHwOtgo-86" value="+capNhatThongTinTaiKhoan" style="text;align=left;verticalAlign=top;spacingLeft=4;spacingRight=4;overflow=hidden;rotatable=0;points=[[0,0.5],[1,0.5]];portConstraint=eastwest;fontSize=16;" parent="peWEARGx3W2LzcHwOtgo-49" vertex="1">
          <mxGeometry y="101" width="284" height="26" as="geometry" />
        </mxCell>
        <mxCell id="peWEARGx3W2LzcHwOtgo-88" value="+xoaTaiKhoan()" style="text;align=left;verticalAlign=top;spacingLeft=4;spacingRight=4;overflow=hidden;rotatable=0;points=[[0,0.5],[1,0.5]];portConstraint=eastwest;fontSize=16;" parent="peWEARGx3W2LzcHwOtgo-49" vertex="1">
          <mxGeometry y="127" width="284" height="26" as="geometry" />
        </mxCell>
        <mxCell id="peWEARGx3W2LzcHwOtgo-70" style="edgeStyle=orthogonalEdgeStyle;rounded=0;orthogonalLoop=1;jettySize=auto;html=1;entryX=0.5;entryY=0;entryDx=0;entryDy=0;fontSize=16;" parent="WIyWlLk6GJQsqaUBKTNV-1" source="peWEARGx3W2LzcHwOtgo-53" target="peWEARGx3W2LzcHwOtgo-55" edge="1">
          <mxGeometry relative="1" as="geometry">
            <Array as="points">
              <mxPoint x="58" y="1089" />
              <mxPoint x="453" y="1089" />
            </Array>
          </mxGeometry>
        </mxCell>
        <mxCell id="peWEARGx3W2LzcHwOtgo-71" style="edgeStyle=orthogonalEdgeStyle;rounded=0;orthogonalLoop=1;jettySize=auto;html=1;entryX=0.5;entryY=0;entryDx=0;entryDy=0;fontSize=16;" parent="WIyWlLk6GJQsqaUBKTNV-1" source="peWEARGx3W2LzcHwOtgo-53" target="peWEARGx3W2LzcHwOtgo-59" edge="1">
          <mxGeometry relative="1" as="geometry">
            <Array as="points">
              <mxPoint x="58" y="1041" />
              <mxPoint x="843" y="1041" />
            </Array>
          </mxGeometry>
        </mxCell>
        <mxCell id="peWEARGx3W2LzcHwOtgo-53" value="&lt;&lt;control&gt;&gt;&#xa;DAO_DanhSachNhanVienHanhChinh" style="swimlane;fontStyle=1;align=center;verticalAlign=top;childLayout=stackLayout;horizontal=1;startSize=49;horizontalStack=0;resizeParent=1;resizeLast=0;collapsible=1;marginBottom=0;rounded=0;shadow=0;strokeWidth=1;fontSize=16;" parent="WIyWlLk6GJQsqaUBKTNV-1" vertex="1">
          <mxGeometry x="-84" y="1129" width="304" height="107" as="geometry">
            <mxRectangle x="230" y="140" width="160" height="26" as="alternateBounds" />
          </mxGeometry>
        </mxCell>
        <mxCell id="peWEARGx3W2LzcHwOtgo-91" value="+getDanhSachNhanVienHanhChinh()" style="text;align=left;verticalAlign=top;spacingLeft=4;spacingRight=4;overflow=hidden;rotatable=0;points=[[0,0.5],[1,0.5]];portConstraint=eastwest;fontSize=16;" parent="peWEARGx3W2LzcHwOtgo-53" vertex="1">
          <mxGeometry y="49" width="304" height="26" as="geometry" />
        </mxCell>
        <mxCell id="peWEARGx3W2LzcHwOtgo-98" value="+chamCongDanhSachNhanVien()" style="text;align=left;verticalAlign=top;spacingLeft=4;spacingRight=4;overflow=hidden;rotatable=0;points=[[0,0.5],[1,0.5]];portConstraint=eastwest;fontSize=16;" parent="peWEARGx3W2LzcHwOtgo-53" vertex="1">
          <mxGeometry y="75" width="304" height="26" as="geometry" />
        </mxCell>
        <mxCell id="peWEARGx3W2LzcHwOtgo-72" style="edgeStyle=orthogonalEdgeStyle;rounded=0;orthogonalLoop=1;jettySize=auto;html=1;exitX=0.452;exitY=0.001;exitDx=0;exitDy=0;exitPerimeter=0;fontSize=16;" parent="WIyWlLk6GJQsqaUBKTNV-1" source="peWEARGx3W2LzcHwOtgo-54" target="peWEARGx3W2LzcHwOtgo-57" edge="1">
          <mxGeometry relative="1" as="geometry">
            <mxPoint x="59" y="1435" as="sourcePoint" />
            <mxPoint x="490" y="1474" as="targetPoint" />
            <Array as="points">
              <mxPoint x="58" y="1420" />
              <mxPoint x="485" y="1420" />
              <mxPoint x="485" y="1474" />
              <mxPoint x="486" y="1474" />
            </Array>
          </mxGeometry>
        </mxCell>
        <mxCell id="peWEARGx3W2LzcHwOtgo-73" style="edgeStyle=orthogonalEdgeStyle;rounded=0;orthogonalLoop=1;jettySize=auto;html=1;entryX=0.5;entryY=0;entryDx=0;entryDy=0;fontSize=16;" parent="WIyWlLk6GJQsqaUBKTNV-1" source="peWEARGx3W2LzcHwOtgo-54" target="peWEARGx3W2LzcHwOtgo-58" edge="1">
          <mxGeometry relative="1" as="geometry">
            <Array as="points">
              <mxPoint x="55" y="1407" />
              <mxPoint x="983" y="1407" />
            </Array>
          </mxGeometry>
        </mxCell>
        <mxCell id="peWEARGx3W2LzcHwOtgo-54" value="&lt;&lt;control&gt;&gt;&#xa;DAO_DanhSachCongNhan" style="swimlane;fontStyle=1;align=center;verticalAlign=top;childLayout=stackLayout;horizontal=1;startSize=49;horizontalStack=0;resizeParent=1;resizeLast=0;collapsible=1;marginBottom=0;rounded=0;shadow=0;strokeWidth=1;fontSize=16;" parent="WIyWlLk6GJQsqaUBKTNV-1" vertex="1">
          <mxGeometry x="-87" y="1444" width="321" height="118" as="geometry">
            <mxRectangle x="230" y="140" width="160" height="26" as="alternateBounds" />
          </mxGeometry>
        </mxCell>
        <mxCell id="peWEARGx3W2LzcHwOtgo-92" value="+getDanhSachCongNhan()" style="text;align=left;verticalAlign=top;spacingLeft=4;spacingRight=4;overflow=hidden;rotatable=0;points=[[0,0.5],[1,0.5]];portConstraint=eastwest;fontSize=16;" parent="peWEARGx3W2LzcHwOtgo-54" vertex="1">
          <mxGeometry y="49" width="321" height="26" as="geometry" />
        </mxCell>
        <mxCell id="peWEARGx3W2LzcHwOtgo-102" value="+chamCongDanhSachCongNhan()" style="text;align=left;verticalAlign=top;spacingLeft=4;spacingRight=4;overflow=hidden;rotatable=0;points=[[0,0.5],[1,0.5]];portConstraint=eastwest;fontSize=16;" parent="peWEARGx3W2LzcHwOtgo-54" vertex="1">
          <mxGeometry y="75" width="321" height="26" as="geometry" />
        </mxCell>
        <mxCell id="peWEARGx3W2LzcHwOtgo-55" value="&lt;&lt;control&gt;&gt;&#xa;DAO_NhanVien" style="swimlane;fontStyle=1;align=center;verticalAlign=top;childLayout=stackLayout;horizontal=1;startSize=49;horizontalStack=0;resizeParent=1;resizeLast=0;collapsible=1;marginBottom=0;rounded=0;shadow=0;strokeWidth=1;fontSize=16;" parent="WIyWlLk6GJQsqaUBKTNV-1" vertex="1">
          <mxGeometry x="311" y="1109" width="288" height="89" as="geometry">
            <mxRectangle x="230" y="140" width="160" height="26" as="alternateBounds" />
          </mxGeometry>
        </mxCell>
        <mxCell id="peWEARGx3W2LzcHwOtgo-93" value="+getNhanVien()" style="text;align=left;verticalAlign=top;spacingLeft=4;spacingRight=4;overflow=hidden;rotatable=0;points=[[0,0.5],[1,0.5]];portConstraint=eastwest;fontSize=16;" parent="peWEARGx3W2LzcHwOtgo-55" vertex="1">
          <mxGeometry y="49" width="288" height="26" as="geometry" />
        </mxCell>
        <mxCell id="peWEARGx3W2LzcHwOtgo-57" value="&lt;&lt;control&gt;&gt;&#xa;DAO_CongNhan" style="swimlane;fontStyle=1;align=center;verticalAlign=top;childLayout=stackLayout;horizontal=1;startSize=49;horizontalStack=0;resizeParent=1;resizeLast=0;collapsible=1;marginBottom=0;rounded=0;shadow=0;strokeWidth=1;fontSize=16;" parent="WIyWlLk6GJQsqaUBKTNV-1" vertex="1">
          <mxGeometry x="344" y="1483" width="298" height="91" as="geometry">
            <mxRectangle x="230" y="140" width="160" height="26" as="alternateBounds" />
          </mxGeometry>
        </mxCell>
        <mxCell id="peWEARGx3W2LzcHwOtgo-94" value="+getCongNhan()" style="text;align=left;verticalAlign=top;spacingLeft=4;spacingRight=4;overflow=hidden;rotatable=0;points=[[0,0.5],[1,0.5]];portConstraint=eastwest;fontSize=16;" parent="peWEARGx3W2LzcHwOtgo-57" vertex="1">
          <mxGeometry y="49" width="298" height="26" as="geometry" />
        </mxCell>
        <mxCell id="peWEARGx3W2LzcHwOtgo-58" value="&lt;&lt;control&gt;&gt;&#xa;DAO_PhieuChamCong_1Ngay" style="swimlane;fontStyle=1;align=center;verticalAlign=top;childLayout=stackLayout;horizontal=1;startSize=49;horizontalStack=0;resizeParent=1;resizeLast=0;collapsible=1;marginBottom=0;rounded=0;shadow=0;strokeWidth=1;fontSize=16;" parent="WIyWlLk6GJQsqaUBKTNV-1" vertex="1">
          <mxGeometry x="841" y="1479" width="284" height="90" as="geometry">
            <mxRectangle x="230" y="140" width="160" height="26" as="alternateBounds" />
          </mxGeometry>
        </mxCell>
        <mxCell id="peWEARGx3W2LzcHwOtgo-100" value="+chamCongCongNhan()" style="text;align=left;verticalAlign=top;spacingLeft=4;spacingRight=4;overflow=hidden;rotatable=0;points=[[0,0.5],[1,0.5]];portConstraint=eastwest;fontSize=16;" parent="peWEARGx3W2LzcHwOtgo-58" vertex="1">
          <mxGeometry y="49" width="284" height="26" as="geometry" />
        </mxCell>
        <mxCell id="peWEARGx3W2LzcHwOtgo-59" value="&lt;&lt;control&gt;&gt;&#xa;DAO_PhieuCHamCongHanhChinh_1Ngay" style="swimlane;fontStyle=1;align=center;verticalAlign=top;childLayout=stackLayout;horizontal=1;startSize=49;horizontalStack=0;resizeParent=1;resizeLast=0;collapsible=1;marginBottom=0;rounded=0;shadow=0;strokeWidth=1;fontSize=16;" parent="WIyWlLk6GJQsqaUBKTNV-1" vertex="1">
          <mxGeometry x="659" y="1123" width="368" height="98" as="geometry">
            <mxRectangle x="230" y="140" width="160" height="26" as="alternateBounds" />
          </mxGeometry>
        </mxCell>
        <mxCell id="peWEARGx3W2LzcHwOtgo-99" value="+chamCongNhanVien()" style="text;align=left;verticalAlign=top;spacingLeft=4;spacingRight=4;overflow=hidden;rotatable=0;points=[[0,0.5],[1,0.5]];portConstraint=eastwest;fontSize=16;" parent="peWEARGx3W2LzcHwOtgo-59" vertex="1">
          <mxGeometry y="49" width="368" height="26" as="geometry" />
        </mxCell>
        <mxCell id="891bXy2E5K4bELxM3DLC-0" value="GD_HopDong" style="swimlane;fontStyle=1;childLayout=stackLayout;horizontal=1;startSize=26;fillColor=none;horizontalStack=0;resizeParent=1;resizeParentMax=0;resizeLast=0;collapsible=1;marginBottom=0;whiteSpace=wrap;html=1;fontSize=16;" parent="WIyWlLk6GJQsqaUBKTNV-1" vertex="1">
          <mxGeometry x="-822" y="1659" width="473" height="136" as="geometry" />
        </mxCell>
        <mxCell id="891bXy2E5K4bELxM3DLC-1" value="+ field: type" style="text;strokeColor=none;fillColor=none;align=left;verticalAlign=top;spacingLeft=4;spacingRight=4;overflow=hidden;rotatable=0;points=[[0,0.5],[1,0.5]];portConstraint=eastwest;whiteSpace=wrap;html=1;fontSize=16;fontStyle=1" parent="891bXy2E5K4bELxM3DLC-0" vertex="1">
          <mxGeometry y="26" width="473" height="26" as="geometry" />
        </mxCell>
        <mxCell id="891bXy2E5K4bELxM3DLC-2" value="+ field: type" style="text;strokeColor=none;fillColor=none;align=left;verticalAlign=top;spacingLeft=4;spacingRight=4;overflow=hidden;rotatable=0;points=[[0,0.5],[1,0.5]];portConstraint=eastwest;whiteSpace=wrap;html=1;fontSize=16;fontStyle=1" parent="891bXy2E5K4bELxM3DLC-0" vertex="1">
          <mxGeometry y="52" width="473" height="26" as="geometry" />
        </mxCell>
        <mxCell id="891bXy2E5K4bELxM3DLC-38" value="" style="line;strokeWidth=1;fillColor=none;align=left;verticalAlign=middle;spacingTop=-1;spacingLeft=3;spacingRight=3;rotatable=0;labelPosition=right;points=[];portConstraint=eastwest;strokeColor=inherit;fontSize=16;" parent="891bXy2E5K4bELxM3DLC-0" vertex="1">
          <mxGeometry y="78" width="473" height="8" as="geometry" />
        </mxCell>
        <mxCell id="891bXy2E5K4bELxM3DLC-3" value="+ ActiveFormTaoHD(): void" style="text;strokeColor=none;fillColor=none;align=left;verticalAlign=top;spacingLeft=4;spacingRight=4;overflow=hidden;rotatable=0;points=[[0,0.5],[1,0.5]];portConstraint=eastwest;whiteSpace=wrap;html=1;fontSize=16;fontStyle=0" parent="891bXy2E5K4bELxM3DLC-0" vertex="1">
          <mxGeometry y="86" width="473" height="24" as="geometry" />
        </mxCell>
        <mxCell id="891bXy2E5K4bELxM3DLC-41" value="&lt;font style=&quot;font-size: 16px;&quot;&gt;+ ActiveFormChiTietHD(HopDong hopDong): boolean&lt;/font&gt;" style="text;strokeColor=none;fillColor=none;align=left;verticalAlign=top;spacingLeft=4;spacingRight=4;overflow=hidden;rotatable=0;points=[[0,0.5],[1,0.5]];portConstraint=eastwest;whiteSpace=wrap;html=1;fontSize=16;" parent="891bXy2E5K4bELxM3DLC-0" vertex="1">
          <mxGeometry y="110" width="473" height="26" as="geometry" />
        </mxCell>
        <mxCell id="891bXy2E5K4bELxM3DLC-4" value="GD_ChiTietHopDong" style="swimlane;fontStyle=1;childLayout=stackLayout;horizontal=1;startSize=26;fillColor=none;horizontalStack=0;resizeParent=1;resizeParentMax=0;resizeLast=0;collapsible=1;marginBottom=0;whiteSpace=wrap;html=1;fontSize=16;" parent="WIyWlLk6GJQsqaUBKTNV-1" vertex="1">
          <mxGeometry x="-157" y="1965" width="388" height="112" as="geometry" />
        </mxCell>
        <mxCell id="891bXy2E5K4bELxM3DLC-5" value="+ field: type" style="text;strokeColor=none;fillColor=none;align=left;verticalAlign=top;spacingLeft=4;spacingRight=4;overflow=hidden;rotatable=0;points=[[0,0.5],[1,0.5]];portConstraint=eastwest;whiteSpace=wrap;html=1;fontSize=16;fontStyle=1" parent="891bXy2E5K4bELxM3DLC-4" vertex="1">
          <mxGeometry y="26" width="388" height="26" as="geometry" />
        </mxCell>
        <mxCell id="891bXy2E5K4bELxM3DLC-6" value="+ field: type" style="text;strokeColor=none;fillColor=none;align=left;verticalAlign=top;spacingLeft=4;spacingRight=4;overflow=hidden;rotatable=0;points=[[0,0.5],[1,0.5]];portConstraint=eastwest;whiteSpace=wrap;html=1;fontSize=16;fontStyle=1" parent="891bXy2E5K4bELxM3DLC-4" vertex="1">
          <mxGeometry y="52" width="388" height="26" as="geometry" />
        </mxCell>
        <mxCell id="891bXy2E5K4bELxM3DLC-39" value="" style="line;strokeWidth=1;fillColor=none;align=left;verticalAlign=middle;spacingTop=-1;spacingLeft=3;spacingRight=3;rotatable=0;labelPosition=right;points=[];portConstraint=eastwest;strokeColor=inherit;fontSize=16;" parent="891bXy2E5K4bELxM3DLC-4" vertex="1">
          <mxGeometry y="78" width="388" height="8" as="geometry" />
        </mxCell>
        <mxCell id="891bXy2E5K4bELxM3DLC-40" value="&lt;font style=&quot;font-size: 16px;&quot;&gt;+ ActiveFormUpdateHD(): void&lt;/font&gt;" style="text;strokeColor=none;fillColor=none;align=left;verticalAlign=top;spacingLeft=4;spacingRight=4;overflow=hidden;rotatable=0;points=[[0,0.5],[1,0.5]];portConstraint=eastwest;whiteSpace=wrap;html=1;fontSize=16;" parent="891bXy2E5K4bELxM3DLC-4" vertex="1">
          <mxGeometry y="86" width="388" height="26" as="geometry" />
        </mxCell>
        <mxCell id="891bXy2E5K4bELxM3DLC-8" value="GD_TaoHopDong" style="swimlane;fontStyle=1;childLayout=stackLayout;horizontal=1;startSize=26;fillColor=none;horizontalStack=0;resizeParent=1;resizeParentMax=0;resizeLast=0;collapsible=1;marginBottom=0;whiteSpace=wrap;html=1;fontSize=16;" parent="WIyWlLk6GJQsqaUBKTNV-1" vertex="1">
          <mxGeometry x="-151" y="1632" width="372" height="240" as="geometry" />
        </mxCell>
        <mxCell id="891bXy2E5K4bELxM3DLC-9" value="+ field: type" style="text;strokeColor=none;fillColor=none;align=left;verticalAlign=top;spacingLeft=4;spacingRight=4;overflow=hidden;rotatable=0;points=[[0,0.5],[1,0.5]];portConstraint=eastwest;whiteSpace=wrap;html=1;fontSize=16;fontStyle=1" parent="891bXy2E5K4bELxM3DLC-8" vertex="1">
          <mxGeometry y="26" width="372" height="26" as="geometry" />
        </mxCell>
        <mxCell id="891bXy2E5K4bELxM3DLC-10" value="+ field: type" style="text;strokeColor=none;fillColor=none;align=left;verticalAlign=top;spacingLeft=4;spacingRight=4;overflow=hidden;rotatable=0;points=[[0,0.5],[1,0.5]];portConstraint=eastwest;whiteSpace=wrap;html=1;fontSize=16;fontStyle=1" parent="891bXy2E5K4bELxM3DLC-8" vertex="1">
          <mxGeometry y="52" width="372" height="26" as="geometry" />
        </mxCell>
        <mxCell id="891bXy2E5K4bELxM3DLC-34" value="" style="line;strokeWidth=1;fillColor=none;align=left;verticalAlign=middle;spacingTop=-1;spacingLeft=3;spacingRight=3;rotatable=0;labelPosition=right;points=[];portConstraint=eastwest;strokeColor=inherit;fontSize=16;" parent="891bXy2E5K4bELxM3DLC-8" vertex="1">
          <mxGeometry y="78" width="372" height="8" as="geometry" />
        </mxCell>
        <mxCell id="891bXy2E5K4bELxM3DLC-35" value="&lt;font style=&quot;font-size: 16px;&quot;&gt;+ sendTBSaiCuPhap(string noiDungLoi) : void&lt;/font&gt;" style="text;strokeColor=none;fillColor=none;align=left;verticalAlign=top;spacingLeft=4;spacingRight=4;overflow=hidden;rotatable=0;points=[[0,0.5],[1,0.5]];portConstraint=eastwest;whiteSpace=wrap;html=1;fontSize=16;" parent="891bXy2E5K4bELxM3DLC-8" vertex="1">
          <mxGeometry y="86" width="372" height="26" as="geometry" />
        </mxCell>
        <mxCell id="891bXy2E5K4bELxM3DLC-37" value="+ sendTBAddTC(string noiDung): void" style="text;strokeColor=none;fillColor=none;align=left;verticalAlign=top;spacingLeft=4;spacingRight=4;overflow=hidden;rotatable=0;points=[[0,0.5],[1,0.5]];portConstraint=eastwest;whiteSpace=wrap;html=1;fontSize=16;" parent="891bXy2E5K4bELxM3DLC-8" vertex="1">
          <mxGeometry y="112" width="372" height="26" as="geometry" />
        </mxCell>
        <mxCell id="891bXy2E5K4bELxM3DLC-36" value="+ sendTBAddTB(string noiDungThaiBai): void" style="text;strokeColor=none;fillColor=none;align=left;verticalAlign=top;spacingLeft=4;spacingRight=4;overflow=hidden;rotatable=0;points=[[0,0.5],[1,0.5]];portConstraint=eastwest;whiteSpace=wrap;html=1;fontSize=16;" parent="891bXy2E5K4bELxM3DLC-8" vertex="1">
          <mxGeometry y="138" width="372" height="26" as="geometry" />
        </mxCell>
        <mxCell id="891bXy2E5K4bELxM3DLC-68" value="+ activeFormThemSP()" style="text;strokeColor=none;fillColor=none;align=left;verticalAlign=top;spacingLeft=4;spacingRight=4;overflow=hidden;rotatable=0;points=[[0,0.5],[1,0.5]];portConstraint=eastwest;whiteSpace=wrap;html=1;fontSize=16;" parent="891bXy2E5K4bELxM3DLC-8" vertex="1">
          <mxGeometry y="164" width="372" height="26" as="geometry" />
        </mxCell>
        <mxCell id="891bXy2E5K4bELxM3DLC-79" value="+ addHD(HopDong hopDong): boolean" style="text;strokeColor=none;fillColor=none;align=left;verticalAlign=top;spacingLeft=4;spacingRight=4;overflow=hidden;rotatable=0;points=[[0,0.5],[1,0.5]];portConstraint=eastwest;whiteSpace=wrap;html=1;fontSize=16;" parent="891bXy2E5K4bELxM3DLC-8" vertex="1">
          <mxGeometry y="190" width="372" height="26" as="geometry" />
        </mxCell>
        <mxCell id="891bXy2E5K4bELxM3DLC-11" value="&lt;span style=&quot;font-weight: normal; font-size: 16px;&quot;&gt;+ checkHopDong():boolean&lt;/span&gt;" style="text;strokeColor=none;fillColor=none;align=left;verticalAlign=top;spacingLeft=4;spacingRight=4;overflow=hidden;rotatable=0;points=[[0,0.5],[1,0.5]];portConstraint=eastwest;whiteSpace=wrap;html=1;fontSize=16;fontStyle=1" parent="891bXy2E5K4bELxM3DLC-8" vertex="1">
          <mxGeometry y="216" width="372" height="24" as="geometry" />
        </mxCell>
        <mxCell id="891bXy2E5K4bELxM3DLC-20" value="&amp;lt;&amp;lt;control&amp;gt;&amp;gt;&lt;br style=&quot;font-size: 16px;&quot;&gt;DAO_SanPham" style="swimlane;fontStyle=1;childLayout=stackLayout;horizontal=1;startSize=82;fillColor=none;horizontalStack=0;resizeParent=1;resizeParentMax=0;resizeLast=0;collapsible=1;marginBottom=0;whiteSpace=wrap;html=1;fontSize=16;" parent="WIyWlLk6GJQsqaUBKTNV-1" vertex="1">
          <mxGeometry x="1270" y="1701" width="313" height="147" as="geometry" />
        </mxCell>
        <mxCell id="891bXy2E5K4bELxM3DLC-21" value="+ field: type" style="text;strokeColor=none;fillColor=none;align=left;verticalAlign=top;spacingLeft=4;spacingRight=4;overflow=hidden;rotatable=0;points=[[0,0.5],[1,0.5]];portConstraint=eastwest;whiteSpace=wrap;html=1;fontSize=16;fontStyle=1" parent="891bXy2E5K4bELxM3DLC-20" vertex="1">
          <mxGeometry y="82" width="313" height="5" as="geometry" />
        </mxCell>
        <mxCell id="891bXy2E5K4bELxM3DLC-22" value="+ field: type" style="text;strokeColor=none;fillColor=none;align=left;verticalAlign=top;spacingLeft=4;spacingRight=4;overflow=hidden;rotatable=0;points=[[0,0.5],[1,0.5]];portConstraint=eastwest;whiteSpace=wrap;html=1;fontSize=16;fontStyle=0" parent="891bXy2E5K4bELxM3DLC-20" vertex="1">
          <mxGeometry y="87" width="313" height="26" as="geometry" />
        </mxCell>
        <mxCell id="891bXy2E5K4bELxM3DLC-32" value="" style="line;strokeWidth=1;fillColor=none;align=left;verticalAlign=middle;spacingTop=-1;spacingLeft=3;spacingRight=3;rotatable=0;labelPosition=right;points=[];portConstraint=eastwest;strokeColor=inherit;fontSize=16;" parent="891bXy2E5K4bELxM3DLC-20" vertex="1">
          <mxGeometry y="113" width="313" height="8" as="geometry" />
        </mxCell>
        <mxCell id="891bXy2E5K4bELxM3DLC-23" value="+ addSP(SanPham sanPham) : boolean" style="text;strokeColor=none;fillColor=none;align=left;verticalAlign=top;spacingLeft=4;spacingRight=4;overflow=hidden;rotatable=0;points=[[0,0.5],[1,0.5]];portConstraint=eastwest;whiteSpace=wrap;html=1;fontSize=16;fontStyle=0" parent="891bXy2E5K4bELxM3DLC-20" vertex="1">
          <mxGeometry y="121" width="313" height="26" as="geometry" />
        </mxCell>
        <mxCell id="891bXy2E5K4bELxM3DLC-24" value="&amp;lt;&amp;lt;control&amp;gt;&amp;gt;&lt;br style=&quot;font-size: 16px;&quot;&gt;DAO_HopDong" style="swimlane;fontStyle=1;childLayout=stackLayout;horizontal=1;startSize=82;fillColor=none;horizontalStack=0;resizeParent=1;resizeParentMax=0;resizeLast=0;collapsible=1;marginBottom=0;whiteSpace=wrap;html=1;fontSize=16;" parent="WIyWlLk6GJQsqaUBKTNV-1" vertex="1">
          <mxGeometry x="292" y="2344" width="313" height="173" as="geometry" />
        </mxCell>
        <mxCell id="891bXy2E5K4bELxM3DLC-25" value="+ field: type" style="text;strokeColor=none;fillColor=none;align=left;verticalAlign=top;spacingLeft=4;spacingRight=4;overflow=hidden;rotatable=0;points=[[0,0.5],[1,0.5]];portConstraint=eastwest;whiteSpace=wrap;html=1;fontSize=16;fontStyle=1" parent="891bXy2E5K4bELxM3DLC-24" vertex="1">
          <mxGeometry y="82" width="313" height="5" as="geometry" />
        </mxCell>
        <mxCell id="891bXy2E5K4bELxM3DLC-26" value="&lt;span style=&quot;font-weight: normal; font-size: 16px;&quot;&gt;+ field: type&lt;/span&gt;" style="text;strokeColor=none;fillColor=none;align=left;verticalAlign=top;spacingLeft=4;spacingRight=4;overflow=hidden;rotatable=0;points=[[0,0.5],[1,0.5]];portConstraint=eastwest;whiteSpace=wrap;html=1;fontSize=16;fontStyle=1" parent="891bXy2E5K4bELxM3DLC-24" vertex="1">
          <mxGeometry y="87" width="313" height="26" as="geometry" />
        </mxCell>
        <mxCell id="891bXy2E5K4bELxM3DLC-33" value="" style="line;strokeWidth=1;fillColor=none;align=left;verticalAlign=middle;spacingTop=-1;spacingLeft=3;spacingRight=3;rotatable=0;labelPosition=right;points=[];portConstraint=eastwest;strokeColor=inherit;fontSize=16;" parent="891bXy2E5K4bELxM3DLC-24" vertex="1">
          <mxGeometry y="113" width="313" height="8" as="geometry" />
        </mxCell>
        <mxCell id="891bXy2E5K4bELxM3DLC-76" value="+updateHD(HopDong hopDong): void" style="text;strokeColor=none;fillColor=none;align=left;verticalAlign=top;spacingLeft=4;spacingRight=4;overflow=hidden;rotatable=0;points=[[0,0.5],[1,0.5]];portConstraint=eastwest;whiteSpace=wrap;html=1;fontSize=16;" parent="891bXy2E5K4bELxM3DLC-24" vertex="1">
          <mxGeometry y="121" width="313" height="26" as="geometry" />
        </mxCell>
        <mxCell id="891bXy2E5K4bELxM3DLC-27" value="&lt;span style=&quot;font-weight: normal; font-size: 16px;&quot;&gt;+ addHD(HopDong hopDong): boolean&lt;/span&gt;" style="text;strokeColor=none;fillColor=none;align=left;verticalAlign=top;spacingLeft=4;spacingRight=4;overflow=hidden;rotatable=0;points=[[0,0.5],[1,0.5]];portConstraint=eastwest;whiteSpace=wrap;html=1;fontSize=16;fontStyle=1" parent="891bXy2E5K4bELxM3DLC-24" vertex="1">
          <mxGeometry y="147" width="313" height="26" as="geometry" />
        </mxCell>
        <mxCell id="891bXy2E5K4bELxM3DLC-42" value="GD_CapNhatHopDong" style="swimlane;fontStyle=1;childLayout=stackLayout;horizontal=1;startSize=26;fillColor=none;horizontalStack=0;resizeParent=1;resizeParentMax=0;resizeLast=0;collapsible=1;marginBottom=0;whiteSpace=wrap;html=1;fontSize=16;" parent="WIyWlLk6GJQsqaUBKTNV-1" vertex="1">
          <mxGeometry x="285" y="2114" width="372" height="214" as="geometry" />
        </mxCell>
        <mxCell id="891bXy2E5K4bELxM3DLC-43" value="+ field: type" style="text;strokeColor=none;fillColor=none;align=left;verticalAlign=top;spacingLeft=4;spacingRight=4;overflow=hidden;rotatable=0;points=[[0,0.5],[1,0.5]];portConstraint=eastwest;whiteSpace=wrap;html=1;fontSize=16;fontStyle=1" parent="891bXy2E5K4bELxM3DLC-42" vertex="1">
          <mxGeometry y="26" width="372" height="26" as="geometry" />
        </mxCell>
        <mxCell id="891bXy2E5K4bELxM3DLC-44" value="+ field: type" style="text;strokeColor=none;fillColor=none;align=left;verticalAlign=top;spacingLeft=4;spacingRight=4;overflow=hidden;rotatable=0;points=[[0,0.5],[1,0.5]];portConstraint=eastwest;whiteSpace=wrap;html=1;fontSize=16;fontStyle=1" parent="891bXy2E5K4bELxM3DLC-42" vertex="1">
          <mxGeometry y="52" width="372" height="26" as="geometry" />
        </mxCell>
        <mxCell id="891bXy2E5K4bELxM3DLC-45" value="" style="line;strokeWidth=1;fillColor=none;align=left;verticalAlign=middle;spacingTop=-1;spacingLeft=3;spacingRight=3;rotatable=0;labelPosition=right;points=[];portConstraint=eastwest;strokeColor=inherit;fontSize=16;" parent="891bXy2E5K4bELxM3DLC-42" vertex="1">
          <mxGeometry y="78" width="372" height="8" as="geometry" />
        </mxCell>
        <mxCell id="891bXy2E5K4bELxM3DLC-46" value="&lt;font style=&quot;font-size: 16px;&quot;&gt;+ sendTBSaiCuPhap(string noiDungLoi) : void&lt;/font&gt;" style="text;strokeColor=none;fillColor=none;align=left;verticalAlign=top;spacingLeft=4;spacingRight=4;overflow=hidden;rotatable=0;points=[[0,0.5],[1,0.5]];portConstraint=eastwest;whiteSpace=wrap;html=1;fontSize=16;" parent="891bXy2E5K4bELxM3DLC-42" vertex="1">
          <mxGeometry y="86" width="372" height="26" as="geometry" />
        </mxCell>
        <mxCell id="891bXy2E5K4bELxM3DLC-47" value="+ sendTBAddThanhCong(string noiDung): void" style="text;strokeColor=none;fillColor=none;align=left;verticalAlign=top;spacingLeft=4;spacingRight=4;overflow=hidden;rotatable=0;points=[[0,0.5],[1,0.5]];portConstraint=eastwest;whiteSpace=wrap;html=1;fontSize=16;" parent="891bXy2E5K4bELxM3DLC-42" vertex="1">
          <mxGeometry y="112" width="372" height="26" as="geometry" />
        </mxCell>
        <mxCell id="891bXy2E5K4bELxM3DLC-48" value="+ sendTBAddThatBai(string noiDungThaiBai): void" style="text;strokeColor=none;fillColor=none;align=left;verticalAlign=top;spacingLeft=4;spacingRight=4;overflow=hidden;rotatable=0;points=[[0,0.5],[1,0.5]];portConstraint=eastwest;whiteSpace=wrap;html=1;fontSize=16;" parent="891bXy2E5K4bELxM3DLC-42" vertex="1">
          <mxGeometry y="138" width="372" height="26" as="geometry" />
        </mxCell>
        <mxCell id="891bXy2E5K4bELxM3DLC-75" value="+updateHD(HopDong hopDong): void" style="text;strokeColor=none;fillColor=none;align=left;verticalAlign=top;spacingLeft=4;spacingRight=4;overflow=hidden;rotatable=0;points=[[0,0.5],[1,0.5]];portConstraint=eastwest;whiteSpace=wrap;html=1;fontSize=16;" parent="891bXy2E5K4bELxM3DLC-42" vertex="1">
          <mxGeometry y="164" width="372" height="26" as="geometry" />
        </mxCell>
        <mxCell id="891bXy2E5K4bELxM3DLC-49" value="&lt;span style=&quot;font-weight: normal; font-size: 16px;&quot;&gt;+ checkHopDong():boolean&lt;/span&gt;" style="text;strokeColor=none;fillColor=none;align=left;verticalAlign=top;spacingLeft=4;spacingRight=4;overflow=hidden;rotatable=0;points=[[0,0.5],[1,0.5]];portConstraint=eastwest;whiteSpace=wrap;html=1;fontSize=16;fontStyle=1" parent="891bXy2E5K4bELxM3DLC-42" vertex="1">
          <mxGeometry y="190" width="372" height="24" as="geometry" />
        </mxCell>
        <mxCell id="891bXy2E5K4bELxM3DLC-53" value="GD_ThemSanPham" style="swimlane;fontStyle=1;childLayout=stackLayout;horizontal=1;startSize=26;fillColor=none;horizontalStack=0;resizeParent=1;resizeParentMax=0;resizeLast=0;collapsible=1;marginBottom=0;whiteSpace=wrap;html=1;fontSize=16;" parent="WIyWlLk6GJQsqaUBKTNV-1" vertex="1">
          <mxGeometry x="743" y="1604" width="372" height="214" as="geometry" />
        </mxCell>
        <mxCell id="891bXy2E5K4bELxM3DLC-54" value="+ field: type" style="text;strokeColor=none;fillColor=none;align=left;verticalAlign=top;spacingLeft=4;spacingRight=4;overflow=hidden;rotatable=0;points=[[0,0.5],[1,0.5]];portConstraint=eastwest;whiteSpace=wrap;html=1;fontSize=16;fontStyle=1" parent="891bXy2E5K4bELxM3DLC-53" vertex="1">
          <mxGeometry y="26" width="372" height="26" as="geometry" />
        </mxCell>
        <mxCell id="891bXy2E5K4bELxM3DLC-55" value="+ field: type" style="text;strokeColor=none;fillColor=none;align=left;verticalAlign=top;spacingLeft=4;spacingRight=4;overflow=hidden;rotatable=0;points=[[0,0.5],[1,0.5]];portConstraint=eastwest;whiteSpace=wrap;html=1;fontSize=16;fontStyle=1" parent="891bXy2E5K4bELxM3DLC-53" vertex="1">
          <mxGeometry y="52" width="372" height="26" as="geometry" />
        </mxCell>
        <mxCell id="891bXy2E5K4bELxM3DLC-56" value="" style="line;strokeWidth=1;fillColor=none;align=left;verticalAlign=middle;spacingTop=-1;spacingLeft=3;spacingRight=3;rotatable=0;labelPosition=right;points=[];portConstraint=eastwest;strokeColor=inherit;fontSize=16;" parent="891bXy2E5K4bELxM3DLC-53" vertex="1">
          <mxGeometry y="78" width="372" height="8" as="geometry" />
        </mxCell>
        <mxCell id="891bXy2E5K4bELxM3DLC-57" value="&lt;font style=&quot;font-size: 16px;&quot;&gt;+ sendTBSaiCuPhap(string noiDungLoi) : void&lt;/font&gt;" style="text;strokeColor=none;fillColor=none;align=left;verticalAlign=top;spacingLeft=4;spacingRight=4;overflow=hidden;rotatable=0;points=[[0,0.5],[1,0.5]];portConstraint=eastwest;whiteSpace=wrap;html=1;fontSize=16;" parent="891bXy2E5K4bELxM3DLC-53" vertex="1">
          <mxGeometry y="86" width="372" height="26" as="geometry" />
        </mxCell>
        <mxCell id="891bXy2E5K4bELxM3DLC-58" value="+ sendTBAddThanhCong(string noiDung): void" style="text;strokeColor=none;fillColor=none;align=left;verticalAlign=top;spacingLeft=4;spacingRight=4;overflow=hidden;rotatable=0;points=[[0,0.5],[1,0.5]];portConstraint=eastwest;whiteSpace=wrap;html=1;fontSize=16;" parent="891bXy2E5K4bELxM3DLC-53" vertex="1">
          <mxGeometry y="112" width="372" height="26" as="geometry" />
        </mxCell>
        <mxCell id="891bXy2E5K4bELxM3DLC-59" value="+ sendTBAddThatBai(string noiDungThaiBai): void" style="text;strokeColor=none;fillColor=none;align=left;verticalAlign=top;spacingLeft=4;spacingRight=4;overflow=hidden;rotatable=0;points=[[0,0.5],[1,0.5]];portConstraint=eastwest;whiteSpace=wrap;html=1;fontSize=16;" parent="891bXy2E5K4bELxM3DLC-53" vertex="1">
          <mxGeometry y="138" width="372" height="26" as="geometry" />
        </mxCell>
        <mxCell id="891bXy2E5K4bELxM3DLC-72" value="+ addSP(SanPham sanPham) : boolean" style="text;strokeColor=none;fillColor=none;align=left;verticalAlign=top;spacingLeft=4;spacingRight=4;overflow=hidden;rotatable=0;points=[[0,0.5],[1,0.5]];portConstraint=eastwest;whiteSpace=wrap;html=1;fontSize=16;" parent="891bXy2E5K4bELxM3DLC-53" vertex="1">
          <mxGeometry y="164" width="372" height="26" as="geometry" />
        </mxCell>
        <mxCell id="891bXy2E5K4bELxM3DLC-60" value="&lt;span style=&quot;font-weight: normal; font-size: 16px;&quot;&gt;+ checkCuPhapSP():boolean&lt;/span&gt;" style="text;strokeColor=none;fillColor=none;align=left;verticalAlign=top;spacingLeft=4;spacingRight=4;overflow=hidden;rotatable=0;points=[[0,0.5],[1,0.5]];portConstraint=eastwest;whiteSpace=wrap;html=1;fontSize=16;fontStyle=1" parent="891bXy2E5K4bELxM3DLC-53" vertex="1">
          <mxGeometry y="190" width="372" height="24" as="geometry" />
        </mxCell>
        <mxCell id="891bXy2E5K4bELxM3DLC-62" style="edgeStyle=orthogonalEdgeStyle;rounded=0;orthogonalLoop=1;jettySize=auto;html=1;exitX=0.25;exitY=1;exitDx=0;exitDy=0;entryX=0.01;entryY=0.676;entryDx=0;entryDy=0;entryPerimeter=0;fontSize=16;" parent="WIyWlLk6GJQsqaUBKTNV-1" source="peWEARGx3W2LzcHwOtgo-46" target="891bXy2E5K4bELxM3DLC-38" edge="1">
          <mxGeometry relative="1" as="geometry" />
        </mxCell>
        <mxCell id="891bXy2E5K4bELxM3DLC-63" style="edgeStyle=orthogonalEdgeStyle;rounded=0;orthogonalLoop=1;jettySize=auto;html=1;exitX=1;exitY=0.5;exitDx=0;exitDy=0;entryX=-0.005;entryY=0.894;entryDx=0;entryDy=0;entryPerimeter=0;fontSize=16;" parent="WIyWlLk6GJQsqaUBKTNV-1" source="891bXy2E5K4bELxM3DLC-41" target="891bXy2E5K4bELxM3DLC-6" edge="1">
          <mxGeometry relative="1" as="geometry">
            <Array as="points">
              <mxPoint x="-292" y="1782" />
              <mxPoint x="-292" y="2040" />
            </Array>
          </mxGeometry>
        </mxCell>
        <mxCell id="891bXy2E5K4bELxM3DLC-65" style="edgeStyle=orthogonalEdgeStyle;rounded=0;orthogonalLoop=1;jettySize=auto;html=1;exitX=1;exitY=0.5;exitDx=0;exitDy=0;entryX=-0.005;entryY=0.069;entryDx=0;entryDy=0;entryPerimeter=0;fontSize=16;" parent="WIyWlLk6GJQsqaUBKTNV-1" source="891bXy2E5K4bELxM3DLC-3" target="891bXy2E5K4bELxM3DLC-8" edge="1">
          <mxGeometry relative="1" as="geometry">
            <Array as="points">
              <mxPoint x="-298" y="1758" />
              <mxPoint x="-298" y="1647" />
            </Array>
          </mxGeometry>
        </mxCell>
        <mxCell id="891bXy2E5K4bELxM3DLC-66" style="edgeStyle=orthogonalEdgeStyle;rounded=0;orthogonalLoop=1;jettySize=auto;html=1;fontSize=16;" parent="WIyWlLk6GJQsqaUBKTNV-1" source="891bXy2E5K4bELxM3DLC-40" target="891bXy2E5K4bELxM3DLC-42" edge="1">
          <mxGeometry relative="1" as="geometry">
            <mxPoint x="353" y="2013" as="targetPoint" />
            <Array as="points">
              <mxPoint x="493" y="2070" />
            </Array>
          </mxGeometry>
        </mxCell>
        <mxCell id="891bXy2E5K4bELxM3DLC-70" style="edgeStyle=orthogonalEdgeStyle;rounded=0;orthogonalLoop=1;jettySize=auto;html=1;" parent="WIyWlLk6GJQsqaUBKTNV-1" source="891bXy2E5K4bELxM3DLC-68" target="891bXy2E5K4bELxM3DLC-53" edge="1">
          <mxGeometry relative="1" as="geometry">
            <Array as="points">
              <mxPoint x="391" y="1809" />
              <mxPoint x="391" y="1809" />
            </Array>
          </mxGeometry>
        </mxCell>
        <mxCell id="891bXy2E5K4bELxM3DLC-73" style="edgeStyle=orthogonalEdgeStyle;rounded=0;orthogonalLoop=1;jettySize=auto;html=1;exitX=1;exitY=0.5;exitDx=0;exitDy=0;" parent="WIyWlLk6GJQsqaUBKTNV-1" source="891bXy2E5K4bELxM3DLC-72" target="891bXy2E5K4bELxM3DLC-20" edge="1">
          <mxGeometry relative="1" as="geometry" />
        </mxCell>
        <mxCell id="891bXy2E5K4bELxM3DLC-80" style="edgeStyle=orthogonalEdgeStyle;rounded=0;orthogonalLoop=1;jettySize=auto;html=1;exitX=1;exitY=0.5;exitDx=0;exitDy=0;verticalAlign=top;entryX=1;entryY=0.5;entryDx=0;entryDy=0;" parent="WIyWlLk6GJQsqaUBKTNV-1" source="891bXy2E5K4bELxM3DLC-79" target="891bXy2E5K4bELxM3DLC-27" edge="1">
          <mxGeometry relative="1" as="geometry">
            <mxPoint x="656" y="2632" as="targetPoint" />
            <Array as="points">
              <mxPoint x="221" y="1840" />
              <mxPoint x="693" y="1840" />
              <mxPoint x="693" y="2504" />
            </Array>
          </mxGeometry>
        </mxCell>
        <mxCell id="891bXy2E5K4bELxM3DLC-81" style="edgeStyle=orthogonalEdgeStyle;rounded=0;orthogonalLoop=1;jettySize=auto;html=1;exitX=0;exitY=0.5;exitDx=0;exitDy=0;entryX=0;entryY=0.5;entryDx=0;entryDy=0;" parent="WIyWlLk6GJQsqaUBKTNV-1" source="891bXy2E5K4bELxM3DLC-49" target="891bXy2E5K4bELxM3DLC-76" edge="1">
          <mxGeometry relative="1" as="geometry">
            <Array as="points">
              <mxPoint x="215" y="2316" />
            </Array>
          </mxGeometry>
        </mxCell>
        <mxCell id="O_pE0-xd7alUh3ZDXizb-0" value="&lt;font style=&quot;font-size: 37px;&quot;&gt;MÃ´ hÃ¬nh lá»p tá»ng quÃ¡t&lt;/font&gt;" style="whiteSpace=wrap;html=1;" vertex="1" parent="WIyWlLk6GJQsqaUBKTNV-1">
          <mxGeometry x="899" y="207" width="528" height="186" as="geometry" />
        </mxCell>
        <mxCell id="O_pE0-xd7alUh3ZDXizb-1" value="PhieuChamCongHanhChinh_1Ngay" style="swimlane;fontStyle=1;align=center;verticalAlign=top;childLayout=stackLayout;horizontal=1;startSize=26;horizontalStack=0;resizeParent=1;resizeLast=0;collapsible=1;marginBottom=0;rounded=0;shadow=0;strokeWidth=1;fontSize=16;" vertex="1" parent="WIyWlLk6GJQsqaUBKTNV-1">
          <mxGeometry x="216" y="4247" width="284" height="294" as="geometry">
            <mxRectangle x="230" y="140" width="160" height="26" as="alternateBounds" />
          </mxGeometry>
        </mxCell>
        <mxCell id="O_pE0-xd7alUh3ZDXizb-2" value="- maNV: String {id}" style="text;align=left;verticalAlign=top;spacingLeft=4;spacingRight=4;overflow=hidden;rotatable=0;points=[[0,0.5],[1,0.5]];portConstraint=eastwest;fontSize=16;" vertex="1" parent="O_pE0-xd7alUh3ZDXizb-1">
          <mxGeometry y="26" width="284" height="26" as="geometry" />
        </mxCell>
        <mxCell id="O_pE0-xd7alUh3ZDXizb-3" value="- Ngay: LocalData {id}" style="text;align=left;verticalAlign=top;spacingLeft=4;spacingRight=4;overflow=hidden;rotatable=0;points=[[0,0.5],[1,0.5]];portConstraint=eastwest;rounded=0;shadow=0;html=0;fontSize=16;" vertex="1" parent="O_pE0-xd7alUh3ZDXizb-1">
          <mxGeometry y="52" width="284" height="26" as="geometry" />
        </mxCell>
        <mxCell id="O_pE0-xd7alUh3ZDXizb-4" value="- vang: boolean" style="text;align=left;verticalAlign=top;spacingLeft=4;spacingRight=4;overflow=hidden;rotatable=0;points=[[0,0.5],[1,0.5]];portConstraint=eastwest;rounded=0;shadow=0;html=0;fontSize=16;" vertex="1" parent="O_pE0-xd7alUh3ZDXizb-1">
          <mxGeometry y="78" width="284" height="26" as="geometry" />
        </mxCell>
        <mxCell id="O_pE0-xd7alUh3ZDXizb-5" value="- diTre: boolean" style="text;align=left;verticalAlign=top;spacingLeft=4;spacingRight=4;overflow=hidden;rotatable=0;points=[[0,0.5],[1,0.5]];portConstraint=eastwest;rounded=0;shadow=0;html=0;fontSize=16;" vertex="1" parent="O_pE0-xd7alUh3ZDXizb-1">
          <mxGeometry y="104" width="284" height="26" as="geometry" />
        </mxCell>
        <mxCell id="O_pE0-xd7alUh3ZDXizb-6" value="- gioTangCa: int" style="text;align=left;verticalAlign=top;spacingLeft=4;spacingRight=4;overflow=hidden;rotatable=0;points=[[0,0.5],[1,0.5]];portConstraint=eastwest;rounded=0;shadow=0;html=0;fontSize=16;" vertex="1" parent="O_pE0-xd7alUh3ZDXizb-1">
          <mxGeometry y="130" width="284" height="26" as="geometry" />
        </mxCell>
        <mxCell id="O_pE0-xd7alUh3ZDXizb-7" value="- tienPhat: double" style="text;align=left;verticalAlign=top;spacingLeft=4;spacingRight=4;overflow=hidden;rotatable=0;points=[[0,0.5],[1,0.5]];portConstraint=eastwest;rounded=0;shadow=0;html=0;fontSize=16;" vertex="1" parent="O_pE0-xd7alUh3ZDXizb-1">
          <mxGeometry y="156" width="284" height="26" as="geometry" />
        </mxCell>
        <mxCell id="O_pE0-xd7alUh3ZDXizb-8" value="- noiDungPhat: String" style="text;align=left;verticalAlign=top;spacingLeft=4;spacingRight=4;overflow=hidden;rotatable=0;points=[[0,0.5],[1,0.5]];portConstraint=eastwest;rounded=0;shadow=0;html=0;fontSize=16;" vertex="1" parent="O_pE0-xd7alUh3ZDXizb-1">
          <mxGeometry y="182" width="284" height="26" as="geometry" />
        </mxCell>
        <mxCell id="O_pE0-xd7alUh3ZDXizb-9" value="" style="line;html=1;strokeWidth=1;align=left;verticalAlign=middle;spacingTop=-1;spacingLeft=3;spacingRight=3;rotatable=0;labelPosition=right;points=[];portConstraint=eastwest;fontSize=16;" vertex="1" parent="O_pE0-xd7alUh3ZDXizb-1">
          <mxGeometry y="208" width="284" height="8" as="geometry" />
        </mxCell>
        <mxCell id="O_pE0-xd7alUh3ZDXizb-10" value="&lt;&lt;get()/set()&gt;&gt;" style="text;align=center;verticalAlign=top;spacingLeft=4;spacingRight=4;overflow=hidden;rotatable=0;points=[[0,0.5],[1,0.5]];portConstraint=eastwest;rounded=0;shadow=0;html=0;fontSize=16;" vertex="1" parent="O_pE0-xd7alUh3ZDXizb-1">
          <mxGeometry y="216" width="284" height="26" as="geometry" />
        </mxCell>
        <mxCell id="O_pE0-xd7alUh3ZDXizb-11" value="+ constructor()Â " style="text;align=left;verticalAlign=top;spacingLeft=4;spacingRight=4;overflow=hidden;rotatable=0;points=[[0,0.5],[1,0.5]];portConstraint=eastwest;fontSize=16;" vertex="1" parent="O_pE0-xd7alUh3ZDXizb-1">
          <mxGeometry y="242" width="284" height="26" as="geometry" />
        </mxCell>
        <mxCell id="O_pE0-xd7alUh3ZDXizb-12" value="+ toString(): String" style="text;align=left;verticalAlign=top;spacingLeft=4;spacingRight=4;overflow=hidden;rotatable=0;points=[[0,0.5],[1,0.5]];portConstraint=eastwest;fontSize=16;" vertex="1" parent="O_pE0-xd7alUh3ZDXizb-1">
          <mxGeometry y="268" width="284" height="26" as="geometry" />
        </mxCell>
        <mxCell id="O_pE0-xd7alUh3ZDXizb-13" value="NhanVien" style="swimlane;fontStyle=1;align=center;verticalAlign=top;childLayout=stackLayout;horizontal=1;startSize=26;horizontalStack=0;resizeParent=1;resizeLast=0;collapsible=1;marginBottom=0;rounded=0;shadow=0;strokeWidth=1;fontSize=16;" vertex="1" parent="WIyWlLk6GJQsqaUBKTNV-1">
          <mxGeometry x="590" y="4245" width="255" height="452" as="geometry">
            <mxRectangle x="230" y="140" width="160" height="26" as="alternateBounds" />
          </mxGeometry>
        </mxCell>
        <mxCell id="O_pE0-xd7alUh3ZDXizb-14" value="- maNV: String {id}" style="text;align=left;verticalAlign=top;spacingLeft=4;spacingRight=4;overflow=hidden;rotatable=0;points=[[0,0.5],[1,0.5]];portConstraint=eastwest;fontSize=16;" vertex="1" parent="O_pE0-xd7alUh3ZDXizb-13">
          <mxGeometry y="26" width="255" height="26" as="geometry" />
        </mxCell>
        <mxCell id="O_pE0-xd7alUh3ZDXizb-15" value="- tenNV: String" style="text;align=left;verticalAlign=top;spacingLeft=4;spacingRight=4;overflow=hidden;rotatable=0;points=[[0,0.5],[1,0.5]];portConstraint=eastwest;rounded=0;shadow=0;html=0;fontSize=16;" vertex="1" parent="O_pE0-xd7alUh3ZDXizb-13">
          <mxGeometry y="52" width="255" height="26" as="geometry" />
        </mxCell>
        <mxCell id="O_pE0-xd7alUh3ZDXizb-16" value="- gioiTinh: boolean" style="text;align=left;verticalAlign=top;spacingLeft=4;spacingRight=4;overflow=hidden;rotatable=0;points=[[0,0.5],[1,0.5]];portConstraint=eastwest;rounded=0;shadow=0;html=0;fontSize=16;" vertex="1" parent="O_pE0-xd7alUh3ZDXizb-13">
          <mxGeometry y="78" width="255" height="26" as="geometry" />
        </mxCell>
        <mxCell id="O_pE0-xd7alUh3ZDXizb-17" value="- ngaySinh: Localdate" style="text;align=left;verticalAlign=top;spacingLeft=4;spacingRight=4;overflow=hidden;rotatable=0;points=[[0,0.5],[1,0.5]];portConstraint=eastwest;rounded=0;shadow=0;html=0;fontSize=16;" vertex="1" parent="O_pE0-xd7alUh3ZDXizb-13">
          <mxGeometry y="104" width="255" height="26" as="geometry" />
        </mxCell>
        <mxCell id="O_pE0-xd7alUh3ZDXizb-18" value="- gngayBatDauLam: Localdate" style="text;align=left;verticalAlign=top;spacingLeft=4;spacingRight=4;overflow=hidden;rotatable=0;points=[[0,0.5],[1,0.5]];portConstraint=eastwest;rounded=0;shadow=0;html=0;fontSize=16;" vertex="1" parent="O_pE0-xd7alUh3ZDXizb-13">
          <mxGeometry y="130" width="255" height="26" as="geometry" />
        </mxCell>
        <mxCell id="O_pE0-xd7alUh3ZDXizb-19" value="- CCCD: String" style="text;align=left;verticalAlign=top;spacingLeft=4;spacingRight=4;overflow=hidden;rotatable=0;points=[[0,0.5],[1,0.5]];portConstraint=eastwest;rounded=0;shadow=0;html=0;fontSize=16;" vertex="1" parent="O_pE0-xd7alUh3ZDXizb-13">
          <mxGeometry y="156" width="255" height="26" as="geometry" />
        </mxCell>
        <mxCell id="O_pE0-xd7alUh3ZDXizb-20" value="- luongCoBan: double" style="text;align=left;verticalAlign=top;spacingLeft=4;spacingRight=4;overflow=hidden;rotatable=0;points=[[0,0.5],[1,0.5]];portConstraint=eastwest;rounded=0;shadow=0;html=0;fontSize=16;" vertex="1" parent="O_pE0-xd7alUh3ZDXizb-13">
          <mxGeometry y="182" width="255" height="26" as="geometry" />
        </mxCell>
        <mxCell id="O_pE0-xd7alUh3ZDXizb-21" value="- phuCap: double" style="text;align=left;verticalAlign=top;spacingLeft=4;spacingRight=4;overflow=hidden;rotatable=0;points=[[0,0.5],[1,0.5]];portConstraint=eastwest;rounded=0;shadow=0;html=0;fontSize=16;" vertex="1" parent="O_pE0-xd7alUh3ZDXizb-13">
          <mxGeometry y="208" width="255" height="26" as="geometry" />
        </mxCell>
        <mxCell id="O_pE0-xd7alUh3ZDXizb-22" value="- thamNien: int" style="text;align=left;verticalAlign=top;spacingLeft=4;spacingRight=4;overflow=hidden;rotatable=0;points=[[0,0.5],[1,0.5]];portConstraint=eastwest;rounded=0;shadow=0;html=0;fontSize=16;" vertex="1" parent="O_pE0-xd7alUh3ZDXizb-13">
          <mxGeometry y="234" width="255" height="26" as="geometry" />
        </mxCell>
        <mxCell id="O_pE0-xd7alUh3ZDXizb-23" value="- capBac: int" style="text;align=left;verticalAlign=top;spacingLeft=4;spacingRight=4;overflow=hidden;rotatable=0;points=[[0,0.5],[1,0.5]];portConstraint=eastwest;rounded=0;shadow=0;html=0;fontSize=16;" vertex="1" parent="O_pE0-xd7alUh3ZDXizb-13">
          <mxGeometry y="260" width="255" height="26" as="geometry" />
        </mxCell>
        <mxCell id="O_pE0-xd7alUh3ZDXizb-24" value="- trangThai: boolean" style="text;align=left;verticalAlign=top;spacingLeft=4;spacingRight=4;overflow=hidden;rotatable=0;points=[[0,0.5],[1,0.5]];portConstraint=eastwest;rounded=0;shadow=0;html=0;fontSize=16;" vertex="1" parent="O_pE0-xd7alUh3ZDXizb-13">
          <mxGeometry y="286" width="255" height="26" as="geometry" />
        </mxCell>
        <mxCell id="O_pE0-xd7alUh3ZDXizb-25" value="- soNgayNghiPhepTrongNam: int" style="text;align=left;verticalAlign=top;spacingLeft=4;spacingRight=4;overflow=hidden;rotatable=0;points=[[0,0.5],[1,0.5]];portConstraint=eastwest;rounded=0;shadow=0;html=0;fontSize=16;" vertex="1" parent="O_pE0-xd7alUh3ZDXizb-13">
          <mxGeometry y="312" width="255" height="26" as="geometry" />
        </mxCell>
        <mxCell id="O_pE0-xd7alUh3ZDXizb-26" value="- dienThoai: String" style="text;align=left;verticalAlign=top;spacingLeft=4;spacingRight=4;overflow=hidden;rotatable=0;points=[[0,0.5],[1,0.5]];portConstraint=eastwest;rounded=0;shadow=0;html=0;fontSize=16;" vertex="1" parent="O_pE0-xd7alUh3ZDXizb-13">
          <mxGeometry y="338" width="255" height="26" as="geometry" />
        </mxCell>
        <mxCell id="O_pE0-xd7alUh3ZDXizb-27" value="" style="line;html=1;strokeWidth=1;align=left;verticalAlign=middle;spacingTop=-1;spacingLeft=3;spacingRight=3;rotatable=0;labelPosition=right;points=[];portConstraint=eastwest;fontSize=16;" vertex="1" parent="O_pE0-xd7alUh3ZDXizb-13">
          <mxGeometry y="364" width="255" height="8" as="geometry" />
        </mxCell>
        <mxCell id="O_pE0-xd7alUh3ZDXizb-28" value="&lt;&lt;get()/set()&gt;&gt;" style="text;align=center;verticalAlign=top;spacingLeft=4;spacingRight=4;overflow=hidden;rotatable=0;points=[[0,0.5],[1,0.5]];portConstraint=eastwest;fontSize=16;" vertex="1" parent="O_pE0-xd7alUh3ZDXizb-13">
          <mxGeometry y="372" width="255" height="26" as="geometry" />
        </mxCell>
        <mxCell id="O_pE0-xd7alUh3ZDXizb-29" value="+ constructor()" style="text;align=left;verticalAlign=top;spacingLeft=4;spacingRight=4;overflow=hidden;rotatable=0;points=[[0,0.5],[1,0.5]];portConstraint=eastwest;fontSize=16;" vertex="1" parent="O_pE0-xd7alUh3ZDXizb-13">
          <mxGeometry y="398" width="255" height="26" as="geometry" />
        </mxCell>
        <mxCell id="O_pE0-xd7alUh3ZDXizb-30" value="+ toString(): String" style="text;align=left;verticalAlign=top;spacingLeft=4;spacingRight=4;overflow=hidden;rotatable=0;points=[[0,0.5],[1,0.5]];portConstraint=eastwest;fontSize=16;" vertex="1" parent="O_pE0-xd7alUh3ZDXizb-13">
          <mxGeometry y="424" width="255" height="26" as="geometry" />
        </mxCell>
        <mxCell id="O_pE0-xd7alUh3ZDXizb-31" value="TaiKhoan" style="swimlane;fontStyle=1;align=center;verticalAlign=top;childLayout=stackLayout;horizontal=1;startSize=26;horizontalStack=0;resizeParent=1;resizeLast=0;collapsible=1;marginBottom=0;rounded=0;shadow=0;strokeWidth=1;fontSize=16;" vertex="1" parent="WIyWlLk6GJQsqaUBKTNV-1">
          <mxGeometry x="941" y="4245" width="218" height="248" as="geometry">
            <mxRectangle x="230" y="140" width="160" height="26" as="alternateBounds" />
          </mxGeometry>
        </mxCell>
        <mxCell id="O_pE0-xd7alUh3ZDXizb-32" value="- userName: String {id}" style="text;align=left;verticalAlign=top;spacingLeft=4;spacingRight=4;overflow=hidden;rotatable=0;points=[[0,0.5],[1,0.5]];portConstraint=eastwest;fontSize=16;" vertex="1" parent="O_pE0-xd7alUh3ZDXizb-31">
          <mxGeometry y="26" width="218" height="26" as="geometry" />
        </mxCell>
        <mxCell id="O_pE0-xd7alUh3ZDXizb-33" value="- maNV: StringÂ " style="text;align=left;verticalAlign=top;spacingLeft=4;spacingRight=4;overflow=hidden;rotatable=0;points=[[0,0.5],[1,0.5]];portConstraint=eastwest;rounded=0;shadow=0;html=0;fontSize=16;" vertex="1" parent="O_pE0-xd7alUh3ZDXizb-31">
          <mxGeometry y="52" width="218" height="26" as="geometry" />
        </mxCell>
        <mxCell id="O_pE0-xd7alUh3ZDXizb-34" value="- matKhau: String" style="text;align=left;verticalAlign=top;spacingLeft=4;spacingRight=4;overflow=hidden;rotatable=0;points=[[0,0.5],[1,0.5]];portConstraint=eastwest;rounded=0;shadow=0;html=0;fontSize=16;" vertex="1" parent="O_pE0-xd7alUh3ZDXizb-31">
          <mxGeometry y="78" width="218" height="26" as="geometry" />
        </mxCell>
        <mxCell id="O_pE0-xd7alUh3ZDXizb-35" value="- vaiTro: String" style="text;align=left;verticalAlign=top;spacingLeft=4;spacingRight=4;overflow=hidden;rotatable=0;points=[[0,0.5],[1,0.5]];portConstraint=eastwest;rounded=0;shadow=0;html=0;fontSize=16;" vertex="1" parent="O_pE0-xd7alUh3ZDXizb-31">
          <mxGeometry y="104" width="218" height="26" as="geometry" />
        </mxCell>
        <mxCell id="O_pE0-xd7alUh3ZDXizb-36" value="- trangThai: boolean" style="text;align=left;verticalAlign=top;spacingLeft=4;spacingRight=4;overflow=hidden;rotatable=0;points=[[0,0.5],[1,0.5]];portConstraint=eastwest;rounded=0;shadow=0;html=0;fontSize=16;" vertex="1" parent="O_pE0-xd7alUh3ZDXizb-31">
          <mxGeometry y="130" width="218" height="26" as="geometry" />
        </mxCell>
        <mxCell id="O_pE0-xd7alUh3ZDXizb-37" value="" style="line;html=1;strokeWidth=1;align=left;verticalAlign=middle;spacingTop=-1;spacingLeft=3;spacingRight=3;rotatable=0;labelPosition=right;points=[];portConstraint=eastwest;fontSize=16;" vertex="1" parent="O_pE0-xd7alUh3ZDXizb-31">
          <mxGeometry y="156" width="218" height="8" as="geometry" />
        </mxCell>
        <mxCell id="O_pE0-xd7alUh3ZDXizb-38" value="&lt;&lt;get()/set()&gt;&gt;" style="text;align=center;verticalAlign=top;spacingLeft=4;spacingRight=4;overflow=hidden;rotatable=0;points=[[0,0.5],[1,0.5]];portConstraint=eastwest;fontSize=16;" vertex="1" parent="O_pE0-xd7alUh3ZDXizb-31">
          <mxGeometry y="164" width="218" height="26" as="geometry" />
        </mxCell>
        <mxCell id="O_pE0-xd7alUh3ZDXizb-39" value="+ constructor()" style="text;align=left;verticalAlign=top;spacingLeft=4;spacingRight=4;overflow=hidden;rotatable=0;points=[[0,0.5],[1,0.5]];portConstraint=eastwest;fontSize=16;" vertex="1" parent="O_pE0-xd7alUh3ZDXizb-31">
          <mxGeometry y="190" width="218" height="26" as="geometry" />
        </mxCell>
        <mxCell id="O_pE0-xd7alUh3ZDXizb-40" value="+ toString(): String" style="text;align=left;verticalAlign=top;spacingLeft=4;spacingRight=4;overflow=hidden;rotatable=0;points=[[0,0.5],[1,0.5]];portConstraint=eastwest;fontSize=16;" vertex="1" parent="O_pE0-xd7alUh3ZDXizb-31">
          <mxGeometry y="216" width="218" height="26" as="geometry" />
        </mxCell>
        <mxCell id="O_pE0-xd7alUh3ZDXizb-41" value="PhieuLuong_1Thang" style="swimlane;fontStyle=1;align=center;verticalAlign=top;childLayout=stackLayout;horizontal=1;startSize=26;horizontalStack=0;resizeParent=1;resizeLast=0;collapsible=1;marginBottom=0;rounded=0;shadow=0;strokeWidth=1;fontSize=16;" vertex="1" parent="WIyWlLk6GJQsqaUBKTNV-1">
          <mxGeometry x="1305" y="4238" width="231" height="248" as="geometry">
            <mxRectangle x="230" y="140" width="160" height="26" as="alternateBounds" />
          </mxGeometry>
        </mxCell>
        <mxCell id="O_pE0-xd7alUh3ZDXizb-42" value="- maNV: String {id}" style="text;align=left;verticalAlign=top;spacingLeft=4;spacingRight=4;overflow=hidden;rotatable=0;points=[[0,0.5],[1,0.5]];portConstraint=eastwest;fontSize=16;" vertex="1" parent="O_pE0-xd7alUh3ZDXizb-41">
          <mxGeometry y="26" width="231" height="26" as="geometry" />
        </mxCell>
        <mxCell id="O_pE0-xd7alUh3ZDXizb-43" value="- thang: int {id}" style="text;align=left;verticalAlign=top;spacingLeft=4;spacingRight=4;overflow=hidden;rotatable=0;points=[[0,0.5],[1,0.5]];portConstraint=eastwest;rounded=0;shadow=0;html=0;fontSize=16;" vertex="1" parent="O_pE0-xd7alUh3ZDXizb-41">
          <mxGeometry y="52" width="231" height="26" as="geometry" />
        </mxCell>
        <mxCell id="O_pE0-xd7alUh3ZDXizb-44" value="- soNgayLam: int" style="text;align=left;verticalAlign=top;spacingLeft=4;spacingRight=4;overflow=hidden;rotatable=0;points=[[0,0.5],[1,0.5]];portConstraint=eastwest;rounded=0;shadow=0;html=0;fontSize=16;" vertex="1" parent="O_pE0-xd7alUh3ZDXizb-41">
          <mxGeometry y="78" width="231" height="26" as="geometry" />
        </mxCell>
        <mxCell id="O_pE0-xd7alUh3ZDXizb-45" value="- thuong: double" style="text;align=left;verticalAlign=top;spacingLeft=4;spacingRight=4;overflow=hidden;rotatable=0;points=[[0,0.5],[1,0.5]];portConstraint=eastwest;rounded=0;shadow=0;html=0;fontSize=16;" vertex="1" parent="O_pE0-xd7alUh3ZDXizb-41">
          <mxGeometry y="104" width="231" height="26" as="geometry" />
        </mxCell>
        <mxCell id="O_pE0-xd7alUh3ZDXizb-46" value="- phat: double" style="text;align=left;verticalAlign=top;spacingLeft=4;spacingRight=4;overflow=hidden;rotatable=0;points=[[0,0.5],[1,0.5]];portConstraint=eastwest;rounded=0;shadow=0;html=0;fontSize=16;" vertex="1" parent="O_pE0-xd7alUh3ZDXizb-41">
          <mxGeometry y="130" width="231" height="26" as="geometry" />
        </mxCell>
        <mxCell id="O_pE0-xd7alUh3ZDXizb-47" value="" style="line;html=1;strokeWidth=1;align=left;verticalAlign=middle;spacingTop=-1;spacingLeft=3;spacingRight=3;rotatable=0;labelPosition=right;points=[];portConstraint=eastwest;fontSize=16;" vertex="1" parent="O_pE0-xd7alUh3ZDXizb-41">
          <mxGeometry y="156" width="231" height="8" as="geometry" />
        </mxCell>
        <mxCell id="O_pE0-xd7alUh3ZDXizb-48" value="&lt;&lt;get()/set()&gt;&gt;" style="text;align=center;verticalAlign=top;spacingLeft=4;spacingRight=4;overflow=hidden;rotatable=0;points=[[0,0.5],[1,0.5]];portConstraint=eastwest;fontSize=16;" vertex="1" parent="O_pE0-xd7alUh3ZDXizb-41">
          <mxGeometry y="164" width="231" height="26" as="geometry" />
        </mxCell>
        <mxCell id="O_pE0-xd7alUh3ZDXizb-49" value="+ constructor()" style="text;align=left;verticalAlign=top;spacingLeft=4;spacingRight=4;overflow=hidden;rotatable=0;points=[[0,0.5],[1,0.5]];portConstraint=eastwest;fontSize=16;" vertex="1" parent="O_pE0-xd7alUh3ZDXizb-41">
          <mxGeometry y="190" width="231" height="26" as="geometry" />
        </mxCell>
        <mxCell id="O_pE0-xd7alUh3ZDXizb-50" value="+ toString(): String" style="text;align=left;verticalAlign=top;spacingLeft=4;spacingRight=4;overflow=hidden;rotatable=0;points=[[0,0.5],[1,0.5]];portConstraint=eastwest;fontSize=16;" vertex="1" parent="O_pE0-xd7alUh3ZDXizb-41">
          <mxGeometry y="216" width="231" height="26" as="geometry" />
        </mxCell>
        <mxCell id="O_pE0-xd7alUh3ZDXizb-51" value="SanPham" style="swimlane;fontStyle=1;align=center;verticalAlign=top;childLayout=stackLayout;horizontal=1;startSize=26;horizontalStack=0;resizeParent=1;resizeLast=0;collapsible=1;marginBottom=0;rounded=0;shadow=0;strokeWidth=1;fontSize=16;" vertex="1" parent="WIyWlLk6GJQsqaUBKTNV-1">
          <mxGeometry x="227" y="4813.5" width="217" height="247" as="geometry">
            <mxRectangle x="230" y="140" width="160" height="26" as="alternateBounds" />
          </mxGeometry>
        </mxCell>
        <mxCell id="O_pE0-xd7alUh3ZDXizb-52" value="- maSP: String {id}" style="text;align=left;verticalAlign=top;spacingLeft=4;spacingRight=4;overflow=hidden;rotatable=0;points=[[0,0.5],[1,0.5]];portConstraint=eastwest;fontSize=16;" vertex="1" parent="O_pE0-xd7alUh3ZDXizb-51">
          <mxGeometry y="26" width="217" height="26" as="geometry" />
        </mxCell>
        <mxCell id="O_pE0-xd7alUh3ZDXizb-53" value="- maHD: String {id}" style="text;align=left;verticalAlign=top;spacingLeft=4;spacingRight=4;overflow=hidden;rotatable=0;points=[[0,0.5],[1,0.5]];portConstraint=eastwest;rounded=0;shadow=0;html=0;fontSize=16;" vertex="1" parent="O_pE0-xd7alUh3ZDXizb-51">
          <mxGeometry y="52" width="217" height="26" as="geometry" />
        </mxCell>
        <mxCell id="O_pE0-xd7alUh3ZDXizb-54" value="- tenSP: String" style="text;align=left;verticalAlign=top;spacingLeft=4;spacingRight=4;overflow=hidden;rotatable=0;points=[[0,0.5],[1,0.5]];portConstraint=eastwest;rounded=0;shadow=0;html=0;fontSize=16;" vertex="1" parent="O_pE0-xd7alUh3ZDXizb-51">
          <mxGeometry y="78" width="217" height="26" as="geometry" />
        </mxCell>
        <mxCell id="O_pE0-xd7alUh3ZDXizb-55" value="- soLuong: int" style="text;align=left;verticalAlign=top;spacingLeft=4;spacingRight=4;overflow=hidden;rotatable=0;points=[[0,0.5],[1,0.5]];portConstraint=eastwest;rounded=0;shadow=0;html=0;fontSize=16;" vertex="1" parent="O_pE0-xd7alUh3ZDXizb-51">
          <mxGeometry y="104" width="217" height="26" as="geometry" />
        </mxCell>
        <mxCell id="O_pE0-xd7alUh3ZDXizb-56" value="- donGia: double" style="text;align=left;verticalAlign=top;spacingLeft=4;spacingRight=4;overflow=hidden;rotatable=0;points=[[0,0.5],[1,0.5]];portConstraint=eastwest;rounded=0;shadow=0;html=0;fontSize=16;" vertex="1" parent="O_pE0-xd7alUh3ZDXizb-51">
          <mxGeometry y="130" width="217" height="26" as="geometry" />
        </mxCell>
        <mxCell id="O_pE0-xd7alUh3ZDXizb-57" value="" style="line;html=1;strokeWidth=1;align=left;verticalAlign=middle;spacingTop=-1;spacingLeft=3;spacingRight=3;rotatable=0;labelPosition=right;points=[];portConstraint=eastwest;fontSize=16;" vertex="1" parent="O_pE0-xd7alUh3ZDXizb-51">
          <mxGeometry y="156" width="217" height="8" as="geometry" />
        </mxCell>
        <mxCell id="O_pE0-xd7alUh3ZDXizb-58" value="&lt;&lt;get()/set()&gt;&gt;" style="text;align=center;verticalAlign=top;spacingLeft=4;spacingRight=4;overflow=hidden;rotatable=0;points=[[0,0.5],[1,0.5]];portConstraint=eastwest;rounded=0;shadow=0;html=0;fontSize=16;" vertex="1" parent="O_pE0-xd7alUh3ZDXizb-51">
          <mxGeometry y="164" width="217" height="26" as="geometry" />
        </mxCell>
        <mxCell id="O_pE0-xd7alUh3ZDXizb-59" value="+ constructor()Â " style="text;align=left;verticalAlign=top;spacingLeft=4;spacingRight=4;overflow=hidden;rotatable=0;points=[[0,0.5],[1,0.5]];portConstraint=eastwest;fontSize=16;" vertex="1" parent="O_pE0-xd7alUh3ZDXizb-51">
          <mxGeometry y="190" width="217" height="26" as="geometry" />
        </mxCell>
        <mxCell id="O_pE0-xd7alUh3ZDXizb-60" value="+ toString(): String" style="text;align=left;verticalAlign=top;spacingLeft=4;spacingRight=4;overflow=hidden;rotatable=0;points=[[0,0.5],[1,0.5]];portConstraint=eastwest;fontSize=16;" vertex="1" parent="O_pE0-xd7alUh3ZDXizb-51">
          <mxGeometry y="216" width="217" height="26" as="geometry" />
        </mxCell>
        <mxCell id="O_pE0-xd7alUh3ZDXizb-61" value="HopDong" style="swimlane;fontStyle=1;align=center;verticalAlign=top;childLayout=stackLayout;horizontal=1;startSize=26;horizontalStack=0;resizeParent=1;resizeLast=0;collapsible=1;marginBottom=0;rounded=0;shadow=0;strokeWidth=1;fontSize=16;" vertex="1" parent="WIyWlLk6GJQsqaUBKTNV-1">
          <mxGeometry x="572" y="4807" width="260" height="294" as="geometry">
            <mxRectangle x="230" y="140" width="160" height="26" as="alternateBounds" />
          </mxGeometry>
        </mxCell>
        <mxCell id="O_pE0-xd7alUh3ZDXizb-62" value="- maHD: String {id}" style="text;align=left;verticalAlign=top;spacingLeft=4;spacingRight=4;overflow=hidden;rotatable=0;points=[[0,0.5],[1,0.5]];portConstraint=eastwest;fontSize=16;" vertex="1" parent="O_pE0-xd7alUh3ZDXizb-61">
          <mxGeometry y="26" width="260" height="26" as="geometry" />
        </mxCell>
        <mxCell id="O_pE0-xd7alUh3ZDXizb-63" value="- maKH: StringÂ " style="text;align=left;verticalAlign=top;spacingLeft=4;spacingRight=4;overflow=hidden;rotatable=0;points=[[0,0.5],[1,0.5]];portConstraint=eastwest;rounded=0;shadow=0;html=0;fontSize=16;" vertex="1" parent="O_pE0-xd7alUh3ZDXizb-61">
          <mxGeometry y="52" width="260" height="26" as="geometry" />
        </mxCell>
        <mxCell id="O_pE0-xd7alUh3ZDXizb-64" value="- tenHD: String" style="text;align=left;verticalAlign=top;spacingLeft=4;spacingRight=4;overflow=hidden;rotatable=0;points=[[0,0.5],[1,0.5]];portConstraint=eastwest;rounded=0;shadow=0;html=0;fontSize=16;" vertex="1" parent="O_pE0-xd7alUh3ZDXizb-61">
          <mxGeometry y="78" width="260" height="26" as="geometry" />
        </mxCell>
        <mxCell id="O_pE0-xd7alUh3ZDXizb-65" value="- donGia: double" style="text;align=left;verticalAlign=top;spacingLeft=4;spacingRight=4;overflow=hidden;rotatable=0;points=[[0,0.5],[1,0.5]];portConstraint=eastwest;rounded=0;shadow=0;html=0;fontSize=16;" vertex="1" parent="O_pE0-xd7alUh3ZDXizb-61">
          <mxGeometry y="104" width="260" height="26" as="geometry" />
        </mxCell>
        <mxCell id="O_pE0-xd7alUh3ZDXizb-66" value="- ngayBatDau: LocalDate" style="text;align=left;verticalAlign=top;spacingLeft=4;spacingRight=4;overflow=hidden;rotatable=0;points=[[0,0.5],[1,0.5]];portConstraint=eastwest;rounded=0;shadow=0;html=0;fontSize=16;" vertex="1" parent="O_pE0-xd7alUh3ZDXizb-61">
          <mxGeometry y="130" width="260" height="26" as="geometry" />
        </mxCell>
        <mxCell id="O_pE0-xd7alUh3ZDXizb-67" value="- ngayKetThucDuKien: LocalDate" style="text;align=left;verticalAlign=top;spacingLeft=4;spacingRight=4;overflow=hidden;rotatable=0;points=[[0,0.5],[1,0.5]];portConstraint=eastwest;rounded=0;shadow=0;html=0;fontSize=16;" vertex="1" parent="O_pE0-xd7alUh3ZDXizb-61">
          <mxGeometry y="156" width="260" height="26" as="geometry" />
        </mxCell>
        <mxCell id="O_pE0-xd7alUh3ZDXizb-68" value="- trangThai: String" style="text;align=left;verticalAlign=top;spacingLeft=4;spacingRight=4;overflow=hidden;rotatable=0;points=[[0,0.5],[1,0.5]];portConstraint=eastwest;rounded=0;shadow=0;html=0;fontSize=16;" vertex="1" parent="O_pE0-xd7alUh3ZDXizb-61">
          <mxGeometry y="182" width="260" height="26" as="geometry" />
        </mxCell>
        <mxCell id="O_pE0-xd7alUh3ZDXizb-69" value="" style="line;html=1;strokeWidth=1;align=left;verticalAlign=middle;spacingTop=-1;spacingLeft=3;spacingRight=3;rotatable=0;labelPosition=right;points=[];portConstraint=eastwest;fontSize=16;" vertex="1" parent="O_pE0-xd7alUh3ZDXizb-61">
          <mxGeometry y="208" width="260" height="8" as="geometry" />
        </mxCell>
        <mxCell id="O_pE0-xd7alUh3ZDXizb-70" value="&lt;&lt;get()/set()&gt;&gt;" style="text;align=center;verticalAlign=top;spacingLeft=4;spacingRight=4;overflow=hidden;rotatable=0;points=[[0,0.5],[1,0.5]];portConstraint=eastwest;rounded=0;shadow=0;html=0;fontSize=16;" vertex="1" parent="O_pE0-xd7alUh3ZDXizb-61">
          <mxGeometry y="216" width="260" height="26" as="geometry" />
        </mxCell>
        <mxCell id="O_pE0-xd7alUh3ZDXizb-71" value="+ constructor()Â " style="text;align=left;verticalAlign=top;spacingLeft=4;spacingRight=4;overflow=hidden;rotatable=0;points=[[0,0.5],[1,0.5]];portConstraint=eastwest;fontSize=16;" vertex="1" parent="O_pE0-xd7alUh3ZDXizb-61">
          <mxGeometry y="242" width="260" height="26" as="geometry" />
        </mxCell>
        <mxCell id="O_pE0-xd7alUh3ZDXizb-72" value="+ toString(): String" style="text;align=left;verticalAlign=top;spacingLeft=4;spacingRight=4;overflow=hidden;rotatable=0;points=[[0,0.5],[1,0.5]];portConstraint=eastwest;fontSize=16;" vertex="1" parent="O_pE0-xd7alUh3ZDXizb-61">
          <mxGeometry y="268" width="260" height="26" as="geometry" />
        </mxCell>
        <mxCell id="O_pE0-xd7alUh3ZDXizb-73" value="KhachHang" style="swimlane;fontStyle=1;align=center;verticalAlign=top;childLayout=stackLayout;horizontal=1;startSize=26;horizontalStack=0;resizeParent=1;resizeLast=0;collapsible=1;marginBottom=0;rounded=0;shadow=0;strokeWidth=1;fontSize=16;" vertex="1" parent="WIyWlLk6GJQsqaUBKTNV-1">
          <mxGeometry x="957" y="4807" width="217" height="250" as="geometry">
            <mxRectangle x="230" y="140" width="160" height="26" as="alternateBounds" />
          </mxGeometry>
        </mxCell>
        <mxCell id="O_pE0-xd7alUh3ZDXizb-74" value="- maKH: String {id}" style="text;align=left;verticalAlign=top;spacingLeft=4;spacingRight=4;overflow=hidden;rotatable=0;points=[[0,0.5],[1,0.5]];portConstraint=eastwest;fontSize=16;" vertex="1" parent="O_pE0-xd7alUh3ZDXizb-73">
          <mxGeometry y="26" width="217" height="26" as="geometry" />
        </mxCell>
        <mxCell id="O_pE0-xd7alUh3ZDXizb-75" value="- tenKH: StringÂ " style="text;align=left;verticalAlign=top;spacingLeft=4;spacingRight=4;overflow=hidden;rotatable=0;points=[[0,0.5],[1,0.5]];portConstraint=eastwest;rounded=0;shadow=0;html=0;fontSize=16;" vertex="1" parent="O_pE0-xd7alUh3ZDXizb-73">
          <mxGeometry y="52" width="217" height="26" as="geometry" />
        </mxCell>
        <mxCell id="O_pE0-xd7alUh3ZDXizb-76" value="- toChuc: boolean" style="text;align=left;verticalAlign=top;spacingLeft=4;spacingRight=4;overflow=hidden;rotatable=0;points=[[0,0.5],[1,0.5]];portConstraint=eastwest;rounded=0;shadow=0;html=0;fontSize=16;" vertex="1" parent="O_pE0-xd7alUh3ZDXizb-73">
          <mxGeometry y="78" width="217" height="26" as="geometry" />
        </mxCell>
        <mxCell id="O_pE0-xd7alUh3ZDXizb-77" value="- email: String" style="text;align=left;verticalAlign=top;spacingLeft=4;spacingRight=4;overflow=hidden;rotatable=0;points=[[0,0.5],[1,0.5]];portConstraint=eastwest;rounded=0;shadow=0;html=0;fontSize=16;" vertex="1" parent="O_pE0-xd7alUh3ZDXizb-73">
          <mxGeometry y="104" width="217" height="26" as="geometry" />
        </mxCell>
        <mxCell id="O_pE0-xd7alUh3ZDXizb-78" value="- soDienThoai" style="text;align=left;verticalAlign=top;spacingLeft=4;spacingRight=4;overflow=hidden;rotatable=0;points=[[0,0.5],[1,0.5]];portConstraint=eastwest;rounded=0;shadow=0;html=0;fontSize=16;" vertex="1" parent="O_pE0-xd7alUh3ZDXizb-73">
          <mxGeometry y="130" width="217" height="26" as="geometry" />
        </mxCell>
        <mxCell id="O_pE0-xd7alUh3ZDXizb-79" value="" style="line;html=1;strokeWidth=1;align=left;verticalAlign=middle;spacingTop=-1;spacingLeft=3;spacingRight=3;rotatable=0;labelPosition=right;points=[];portConstraint=eastwest;fontSize=16;" vertex="1" parent="O_pE0-xd7alUh3ZDXizb-73">
          <mxGeometry y="156" width="217" height="8" as="geometry" />
        </mxCell>
        <mxCell id="O_pE0-xd7alUh3ZDXizb-80" value="&lt;&lt;get()/set()&gt;&gt;" style="text;align=center;verticalAlign=top;spacingLeft=4;spacingRight=4;overflow=hidden;rotatable=0;points=[[0,0.5],[1,0.5]];portConstraint=eastwest;rounded=0;shadow=0;html=0;fontSize=16;" vertex="1" parent="O_pE0-xd7alUh3ZDXizb-73">
          <mxGeometry y="164" width="217" height="26" as="geometry" />
        </mxCell>
        <mxCell id="O_pE0-xd7alUh3ZDXizb-81" value="+ constructor()Â " style="text;align=left;verticalAlign=top;spacingLeft=4;spacingRight=4;overflow=hidden;rotatable=0;points=[[0,0.5],[1,0.5]];portConstraint=eastwest;fontSize=16;" vertex="1" parent="O_pE0-xd7alUh3ZDXizb-73">
          <mxGeometry y="190" width="217" height="26" as="geometry" />
        </mxCell>
        <mxCell id="O_pE0-xd7alUh3ZDXizb-82" value="+ toString(): String" style="text;align=left;verticalAlign=top;spacingLeft=4;spacingRight=4;overflow=hidden;rotatable=0;points=[[0,0.5],[1,0.5]];portConstraint=eastwest;fontSize=16;" vertex="1" parent="O_pE0-xd7alUh3ZDXizb-73">
          <mxGeometry y="216" width="217" height="26" as="geometry" />
        </mxCell>
        <mxCell id="O_pE0-xd7alUh3ZDXizb-83" value="PhieuChamCong_1Ngay" style="swimlane;fontStyle=1;align=center;verticalAlign=top;childLayout=stackLayout;horizontal=1;startSize=26;horizontalStack=0;resizeParent=1;resizeLast=0;collapsible=1;marginBottom=0;rounded=0;shadow=0;strokeWidth=1;fontSize=16;" vertex="1" parent="WIyWlLk6GJQsqaUBKTNV-1">
          <mxGeometry x="1307" y="4800" width="217" height="294" as="geometry">
            <mxRectangle x="230" y="140" width="160" height="26" as="alternateBounds" />
          </mxGeometry>
        </mxCell>
        <mxCell id="O_pE0-xd7alUh3ZDXizb-84" value="- maCN: String {id}" style="text;align=left;verticalAlign=top;spacingLeft=4;spacingRight=4;overflow=hidden;rotatable=0;points=[[0,0.5],[1,0.5]];portConstraint=eastwest;fontSize=16;" vertex="1" parent="O_pE0-xd7alUh3ZDXizb-83">
          <mxGeometry y="26" width="217" height="26" as="geometry" />
        </mxCell>
        <mxCell id="O_pE0-xd7alUh3ZDXizb-85" value="- ngay: localDate {id}" style="text;align=left;verticalAlign=top;spacingLeft=4;spacingRight=4;overflow=hidden;rotatable=0;points=[[0,0.5],[1,0.5]];portConstraint=eastwest;rounded=0;shadow=0;html=0;fontSize=16;" vertex="1" parent="O_pE0-xd7alUh3ZDXizb-83">
          <mxGeometry y="52" width="217" height="26" as="geometry" />
        </mxCell>
        <mxCell id="O_pE0-xd7alUh3ZDXizb-86" value="- soLuongSP: int" style="text;align=left;verticalAlign=top;spacingLeft=4;spacingRight=4;overflow=hidden;rotatable=0;points=[[0,0.5],[1,0.5]];portConstraint=eastwest;rounded=0;shadow=0;html=0;fontSize=16;" vertex="1" parent="O_pE0-xd7alUh3ZDXizb-83">
          <mxGeometry y="78" width="217" height="26" as="geometry" />
        </mxCell>
        <mxCell id="O_pE0-xd7alUh3ZDXizb-87" value="- noiDungPhat: String" style="text;align=left;verticalAlign=top;spacingLeft=4;spacingRight=4;overflow=hidden;rotatable=0;points=[[0,0.5],[1,0.5]];portConstraint=eastwest;rounded=0;shadow=0;html=0;fontSize=16;" vertex="1" parent="O_pE0-xd7alUh3ZDXizb-83">
          <mxGeometry y="104" width="217" height="26" as="geometry" />
        </mxCell>
        <mxCell id="O_pE0-xd7alUh3ZDXizb-88" value="- thuong: double" style="text;align=left;verticalAlign=top;spacingLeft=4;spacingRight=4;overflow=hidden;rotatable=0;points=[[0,0.5],[1,0.5]];portConstraint=eastwest;rounded=0;shadow=0;html=0;fontSize=16;" vertex="1" parent="O_pE0-xd7alUh3ZDXizb-83">
          <mxGeometry y="130" width="217" height="26" as="geometry" />
        </mxCell>
        <mxCell id="O_pE0-xd7alUh3ZDXizb-89" value="- phat: double" style="text;align=left;verticalAlign=top;spacingLeft=4;spacingRight=4;overflow=hidden;rotatable=0;points=[[0,0.5],[1,0.5]];portConstraint=eastwest;rounded=0;shadow=0;html=0;fontSize=16;" vertex="1" parent="O_pE0-xd7alUh3ZDXizb-83">
          <mxGeometry y="156" width="217" height="26" as="geometry" />
        </mxCell>
        <mxCell id="O_pE0-xd7alUh3ZDXizb-90" value="-Â  soLuongSPTangCa: int" style="text;align=left;verticalAlign=top;spacingLeft=4;spacingRight=4;overflow=hidden;rotatable=0;points=[[0,0.5],[1,0.5]];portConstraint=eastwest;rounded=0;shadow=0;html=0;fontSize=16;" vertex="1" parent="O_pE0-xd7alUh3ZDXizb-83">
          <mxGeometry y="182" width="217" height="26" as="geometry" />
        </mxCell>
        <mxCell id="O_pE0-xd7alUh3ZDXizb-91" value="" style="line;html=1;strokeWidth=1;align=left;verticalAlign=middle;spacingTop=-1;spacingLeft=3;spacingRight=3;rotatable=0;labelPosition=right;points=[];portConstraint=eastwest;fontSize=16;" vertex="1" parent="O_pE0-xd7alUh3ZDXizb-83">
          <mxGeometry y="208" width="217" height="8" as="geometry" />
        </mxCell>
        <mxCell id="O_pE0-xd7alUh3ZDXizb-92" value="&lt;&lt;get()/set()&gt;&gt;" style="text;align=center;verticalAlign=top;spacingLeft=4;spacingRight=4;overflow=hidden;rotatable=0;points=[[0,0.5],[1,0.5]];portConstraint=eastwest;rounded=0;shadow=0;html=0;fontSize=16;" vertex="1" parent="O_pE0-xd7alUh3ZDXizb-83">
          <mxGeometry y="216" width="217" height="26" as="geometry" />
        </mxCell>
        <mxCell id="O_pE0-xd7alUh3ZDXizb-93" value="+ constructor()Â " style="text;align=left;verticalAlign=top;spacingLeft=4;spacingRight=4;overflow=hidden;rotatable=0;points=[[0,0.5],[1,0.5]];portConstraint=eastwest;fontSize=16;" vertex="1" parent="O_pE0-xd7alUh3ZDXizb-83">
          <mxGeometry y="242" width="217" height="26" as="geometry" />
        </mxCell>
        <mxCell id="O_pE0-xd7alUh3ZDXizb-94" value="+ toString(): String" style="text;align=left;verticalAlign=top;spacingLeft=4;spacingRight=4;overflow=hidden;rotatable=0;points=[[0,0.5],[1,0.5]];portConstraint=eastwest;fontSize=16;" vertex="1" parent="O_pE0-xd7alUh3ZDXizb-83">
          <mxGeometry y="268" width="217" height="26" as="geometry" />
        </mxCell>
        <mxCell id="O_pE0-xd7alUh3ZDXizb-95" value="CongDoan" style="swimlane;fontStyle=1;align=center;verticalAlign=top;childLayout=stackLayout;horizontal=1;startSize=26;horizontalStack=0;resizeParent=1;resizeLast=0;collapsible=1;marginBottom=0;rounded=0;shadow=0;strokeWidth=1;fontSize=16;" vertex="1" parent="WIyWlLk6GJQsqaUBKTNV-1">
          <mxGeometry x="580" y="5177" width="217" height="242" as="geometry">
            <mxRectangle x="230" y="140" width="160" height="26" as="alternateBounds" />
          </mxGeometry>
        </mxCell>
        <mxCell id="O_pE0-xd7alUh3ZDXizb-96" value="- maCD: String {id}" style="text;align=left;verticalAlign=top;spacingLeft=4;spacingRight=4;overflow=hidden;rotatable=0;points=[[0,0.5],[1,0.5]];portConstraint=eastwest;fontSize=16;" vertex="1" parent="O_pE0-xd7alUh3ZDXizb-95">
          <mxGeometry y="26" width="217" height="26" as="geometry" />
        </mxCell>
        <mxCell id="O_pE0-xd7alUh3ZDXizb-97" value="- maSP: StringÂ " style="text;align=left;verticalAlign=top;spacingLeft=4;spacingRight=4;overflow=hidden;rotatable=0;points=[[0,0.5],[1,0.5]];portConstraint=eastwest;fontSize=16;" vertex="1" parent="O_pE0-xd7alUh3ZDXizb-95">
          <mxGeometry y="52" width="217" height="26" as="geometry" />
        </mxCell>
        <mxCell id="O_pE0-xd7alUh3ZDXizb-98" value="- tenCD: StringÂ " style="text;align=left;verticalAlign=top;spacingLeft=4;spacingRight=4;overflow=hidden;rotatable=0;points=[[0,0.5],[1,0.5]];portConstraint=eastwest;fontSize=16;" vertex="1" parent="O_pE0-xd7alUh3ZDXizb-95">
          <mxGeometry y="78" width="217" height="26" as="geometry" />
        </mxCell>
        <mxCell id="O_pE0-xd7alUh3ZDXizb-99" value="- donGia: double" style="text;align=left;verticalAlign=top;spacingLeft=4;spacingRight=4;overflow=hidden;rotatable=0;points=[[0,0.5],[1,0.5]];portConstraint=eastwest;fontSize=16;" vertex="1" parent="O_pE0-xd7alUh3ZDXizb-95">
          <mxGeometry y="104" width="217" height="26" as="geometry" />
        </mxCell>
        <mxCell id="O_pE0-xd7alUh3ZDXizb-100" value="- trangThai: boolean" style="text;align=left;verticalAlign=top;spacingLeft=4;spacingRight=4;overflow=hidden;rotatable=0;points=[[0,0.5],[1,0.5]];portConstraint=eastwest;fontSize=16;" vertex="1" parent="O_pE0-xd7alUh3ZDXizb-95">
          <mxGeometry y="130" width="217" height="26" as="geometry" />
        </mxCell>
        <mxCell id="O_pE0-xd7alUh3ZDXizb-101" value="" style="line;html=1;strokeWidth=1;align=left;verticalAlign=middle;spacingTop=-1;spacingLeft=3;spacingRight=3;rotatable=0;labelPosition=right;points=[];portConstraint=eastwest;fontSize=16;" vertex="1" parent="O_pE0-xd7alUh3ZDXizb-95">
          <mxGeometry y="156" width="217" height="8" as="geometry" />
        </mxCell>
        <mxCell id="O_pE0-xd7alUh3ZDXizb-102" value="&lt;&lt;get()/set()&gt;&gt;" style="text;align=center;verticalAlign=top;spacingLeft=4;spacingRight=4;overflow=hidden;rotatable=0;points=[[0,0.5],[1,0.5]];portConstraint=eastwest;rounded=0;shadow=0;html=0;fontSize=16;" vertex="1" parent="O_pE0-xd7alUh3ZDXizb-95">
          <mxGeometry y="164" width="217" height="26" as="geometry" />
        </mxCell>
        <mxCell id="O_pE0-xd7alUh3ZDXizb-103" value="+ constructor()Â " style="text;align=left;verticalAlign=top;spacingLeft=4;spacingRight=4;overflow=hidden;rotatable=0;points=[[0,0.5],[1,0.5]];portConstraint=eastwest;fontSize=16;" vertex="1" parent="O_pE0-xd7alUh3ZDXizb-95">
          <mxGeometry y="190" width="217" height="26" as="geometry" />
        </mxCell>
        <mxCell id="O_pE0-xd7alUh3ZDXizb-104" value="+ toString(): String" style="text;align=left;verticalAlign=top;spacingLeft=4;spacingRight=4;overflow=hidden;rotatable=0;points=[[0,0.5],[1,0.5]];portConstraint=eastwest;fontSize=16;" vertex="1" parent="O_pE0-xd7alUh3ZDXizb-95">
          <mxGeometry y="216" width="217" height="26" as="geometry" />
        </mxCell>
        <mxCell id="O_pE0-xd7alUh3ZDXizb-105" value="ChiTietPhanCong" style="swimlane;fontStyle=1;align=center;verticalAlign=top;childLayout=stackLayout;horizontal=1;startSize=26;horizontalStack=0;resizeParent=1;resizeLast=0;collapsible=1;marginBottom=0;rounded=0;shadow=0;strokeWidth=1;fontSize=16;" vertex="1" parent="WIyWlLk6GJQsqaUBKTNV-1">
          <mxGeometry x="942" y="5172" width="225" height="221" as="geometry">
            <mxRectangle x="230" y="140" width="160" height="26" as="alternateBounds" />
          </mxGeometry>
        </mxCell>
        <mxCell id="O_pE0-xd7alUh3ZDXizb-106" value="- maCN: String {id}" style="text;align=left;verticalAlign=top;spacingLeft=4;spacingRight=4;overflow=hidden;rotatable=0;points=[[0,0.5],[1,0.5]];portConstraint=eastwest;fontSize=16;" vertex="1" parent="O_pE0-xd7alUh3ZDXizb-105">
          <mxGeometry y="26" width="225" height="26" as="geometry" />
        </mxCell>
        <mxCell id="O_pE0-xd7alUh3ZDXizb-107" value="- maCD: String {id}" style="text;align=left;verticalAlign=top;spacingLeft=4;spacingRight=4;overflow=hidden;rotatable=0;points=[[0,0.5],[1,0.5]];portConstraint=eastwest;fontSize=16;" vertex="1" parent="O_pE0-xd7alUh3ZDXizb-105">
          <mxGeometry y="52" width="225" height="26" as="geometry" />
        </mxCell>
        <mxCell id="O_pE0-xd7alUh3ZDXizb-108" value="- ngayPhanCong: LocalDate" style="text;align=left;verticalAlign=top;spacingLeft=4;spacingRight=4;overflow=hidden;rotatable=0;points=[[0,0.5],[1,0.5]];portConstraint=eastwest;fontSize=16;" vertex="1" parent="O_pE0-xd7alUh3ZDXizb-105">
          <mxGeometry y="78" width="225" height="26" as="geometry" />
        </mxCell>
        <mxCell id="O_pE0-xd7alUh3ZDXizb-109" value="- trangThai: boolean" style="text;align=left;verticalAlign=top;spacingLeft=4;spacingRight=4;overflow=hidden;rotatable=0;points=[[0,0.5],[1,0.5]];portConstraint=eastwest;fontSize=16;" vertex="1" parent="O_pE0-xd7alUh3ZDXizb-105">
          <mxGeometry y="104" width="225" height="26" as="geometry" />
        </mxCell>
        <mxCell id="O_pE0-xd7alUh3ZDXizb-110" value="" style="line;html=1;strokeWidth=1;align=left;verticalAlign=middle;spacingTop=-1;spacingLeft=3;spacingRight=3;rotatable=0;labelPosition=right;points=[];portConstraint=eastwest;fontSize=16;" vertex="1" parent="O_pE0-xd7alUh3ZDXizb-105">
          <mxGeometry y="130" width="225" height="8" as="geometry" />
        </mxCell>
        <mxCell id="O_pE0-xd7alUh3ZDXizb-111" value="&lt;&lt;get()/set()&gt;&gt;" style="text;align=center;verticalAlign=top;spacingLeft=4;spacingRight=4;overflow=hidden;rotatable=0;points=[[0,0.5],[1,0.5]];portConstraint=eastwest;rounded=0;shadow=0;html=0;fontSize=16;" vertex="1" parent="O_pE0-xd7alUh3ZDXizb-105">
          <mxGeometry y="138" width="225" height="26" as="geometry" />
        </mxCell>
        <mxCell id="O_pE0-xd7alUh3ZDXizb-112" value="+ constructor()Â " style="text;align=left;verticalAlign=top;spacingLeft=4;spacingRight=4;overflow=hidden;rotatable=0;points=[[0,0.5],[1,0.5]];portConstraint=eastwest;fontSize=16;" vertex="1" parent="O_pE0-xd7alUh3ZDXizb-105">
          <mxGeometry y="164" width="225" height="26" as="geometry" />
        </mxCell>
        <mxCell id="O_pE0-xd7alUh3ZDXizb-113" value="+ toString(): String" style="text;align=left;verticalAlign=top;spacingLeft=4;spacingRight=4;overflow=hidden;rotatable=0;points=[[0,0.5],[1,0.5]];portConstraint=eastwest;fontSize=16;" vertex="1" parent="O_pE0-xd7alUh3ZDXizb-105">
          <mxGeometry y="190" width="225" height="26" as="geometry" />
        </mxCell>
        <mxCell id="O_pE0-xd7alUh3ZDXizb-114" value="CongNhan" style="swimlane;fontStyle=1;align=center;verticalAlign=top;childLayout=stackLayout;horizontal=1;startSize=26;horizontalStack=0;resizeParent=1;resizeLast=0;collapsible=1;marginBottom=0;rounded=0;shadow=0;strokeWidth=1;fontSize=16;" vertex="1" parent="WIyWlLk6GJQsqaUBKTNV-1">
          <mxGeometry x="1302" y="5167" width="233" height="320" as="geometry">
            <mxRectangle x="230" y="140" width="160" height="26" as="alternateBounds" />
          </mxGeometry>
        </mxCell>
        <mxCell id="O_pE0-xd7alUh3ZDXizb-115" value="- maCN: String {id}" style="text;align=left;verticalAlign=top;spacingLeft=4;spacingRight=4;overflow=hidden;rotatable=0;points=[[0,0.5],[1,0.5]];portConstraint=eastwest;fontSize=16;" vertex="1" parent="O_pE0-xd7alUh3ZDXizb-114">
          <mxGeometry y="26" width="233" height="26" as="geometry" />
        </mxCell>
        <mxCell id="O_pE0-xd7alUh3ZDXizb-116" value="- tenCN: String {id}" style="text;align=left;verticalAlign=top;spacingLeft=4;spacingRight=4;overflow=hidden;rotatable=0;points=[[0,0.5],[1,0.5]];portConstraint=eastwest;fontSize=16;" vertex="1" parent="O_pE0-xd7alUh3ZDXizb-114">
          <mxGeometry y="52" width="233" height="26" as="geometry" />
        </mxCell>
        <mxCell id="O_pE0-xd7alUh3ZDXizb-117" value="- gioiTinh: boolean" style="text;align=left;verticalAlign=top;spacingLeft=4;spacingRight=4;overflow=hidden;rotatable=0;points=[[0,0.5],[1,0.5]];portConstraint=eastwest;fontSize=16;" vertex="1" parent="O_pE0-xd7alUh3ZDXizb-114">
          <mxGeometry y="78" width="233" height="26" as="geometry" />
        </mxCell>
        <mxCell id="O_pE0-xd7alUh3ZDXizb-118" value="- ngaySinh: LocalDate" style="text;align=left;verticalAlign=top;spacingLeft=4;spacingRight=4;overflow=hidden;rotatable=0;points=[[0,0.5],[1,0.5]];portConstraint=eastwest;fontSize=16;" vertex="1" parent="O_pE0-xd7alUh3ZDXizb-114">
          <mxGeometry y="104" width="233" height="26" as="geometry" />
        </mxCell>
        <mxCell id="O_pE0-xd7alUh3ZDXizb-119" value="- ngayBatDauLam: LocalDate" style="text;align=left;verticalAlign=top;spacingLeft=4;spacingRight=4;overflow=hidden;rotatable=0;points=[[0,0.5],[1,0.5]];portConstraint=eastwest;fontSize=16;" vertex="1" parent="O_pE0-xd7alUh3ZDXizb-114">
          <mxGeometry y="130" width="233" height="26" as="geometry" />
        </mxCell>
        <mxCell id="O_pE0-xd7alUh3ZDXizb-120" value="- CCCD; String" style="text;align=left;verticalAlign=top;spacingLeft=4;spacingRight=4;overflow=hidden;rotatable=0;points=[[0,0.5],[1,0.5]];portConstraint=eastwest;fontSize=16;" vertex="1" parent="O_pE0-xd7alUh3ZDXizb-114">
          <mxGeometry y="156" width="233" height="26" as="geometry" />
        </mxCell>
        <mxCell id="O_pE0-xd7alUh3ZDXizb-121" value="- trangThai: boolean" style="text;align=left;verticalAlign=top;spacingLeft=4;spacingRight=4;overflow=hidden;rotatable=0;points=[[0,0.5],[1,0.5]];portConstraint=eastwest;fontSize=16;" vertex="1" parent="O_pE0-xd7alUh3ZDXizb-114">
          <mxGeometry y="182" width="233" height="26" as="geometry" />
        </mxCell>
        <mxCell id="O_pE0-xd7alUh3ZDXizb-122" value="- choPhanCong: boolean" style="text;align=left;verticalAlign=top;spacingLeft=4;spacingRight=4;overflow=hidden;rotatable=0;points=[[0,0.5],[1,0.5]];portConstraint=eastwest;fontSize=16;" vertex="1" parent="O_pE0-xd7alUh3ZDXizb-114">
          <mxGeometry y="208" width="233" height="26" as="geometry" />
        </mxCell>
        <mxCell id="O_pE0-xd7alUh3ZDXizb-123" value="" style="line;html=1;strokeWidth=1;align=left;verticalAlign=middle;spacingTop=-1;spacingLeft=3;spacingRight=3;rotatable=0;labelPosition=right;points=[];portConstraint=eastwest;fontSize=16;" vertex="1" parent="O_pE0-xd7alUh3ZDXizb-114">
          <mxGeometry y="234" width="233" height="8" as="geometry" />
        </mxCell>
        <mxCell id="O_pE0-xd7alUh3ZDXizb-124" value="&lt;&lt;get()/set()&gt;&gt;" style="text;align=center;verticalAlign=top;spacingLeft=4;spacingRight=4;overflow=hidden;rotatable=0;points=[[0,0.5],[1,0.5]];portConstraint=eastwest;rounded=0;shadow=0;html=0;fontSize=16;" vertex="1" parent="O_pE0-xd7alUh3ZDXizb-114">
          <mxGeometry y="242" width="233" height="26" as="geometry" />
        </mxCell>
        <mxCell id="O_pE0-xd7alUh3ZDXizb-125" value="+ constructor()Â " style="text;align=left;verticalAlign=top;spacingLeft=4;spacingRight=4;overflow=hidden;rotatable=0;points=[[0,0.5],[1,0.5]];portConstraint=eastwest;fontSize=16;" vertex="1" parent="O_pE0-xd7alUh3ZDXizb-114">
          <mxGeometry y="268" width="233" height="26" as="geometry" />
        </mxCell>
        <mxCell id="O_pE0-xd7alUh3ZDXizb-126" value="+ toString(): String" style="text;align=left;verticalAlign=top;spacingLeft=4;spacingRight=4;overflow=hidden;rotatable=0;points=[[0,0.5],[1,0.5]];portConstraint=eastwest;fontSize=16;" vertex="1" parent="O_pE0-xd7alUh3ZDXizb-114">
          <mxGeometry y="294" width="233" height="26" as="geometry" />
        </mxCell>
        <mxCell id="O_pE0-xd7alUh3ZDXizb-127" value="&amp;lt;&amp;lt;control&amp;gt;&amp;gt;&lt;br style=&quot;font-size: 16px;&quot;&gt;DAO_SanPham" style="swimlane;fontStyle=1;childLayout=stackLayout;horizontal=1;startSize=82;fillColor=none;horizontalStack=0;resizeParent=1;resizeParentMax=0;resizeLast=0;collapsible=1;marginBottom=0;whiteSpace=wrap;html=1;fontSize=16;" vertex="1" parent="WIyWlLk6GJQsqaUBKTNV-1">
          <mxGeometry x="190" y="5241" width="313" height="147" as="geometry" />
        </mxCell>
        <mxCell id="O_pE0-xd7alUh3ZDXizb-128" value="+ field: type" style="text;strokeColor=none;fillColor=none;align=left;verticalAlign=top;spacingLeft=4;spacingRight=4;overflow=hidden;rotatable=0;points=[[0,0.5],[1,0.5]];portConstraint=eastwest;whiteSpace=wrap;html=1;fontSize=16;fontStyle=1" vertex="1" parent="O_pE0-xd7alUh3ZDXizb-127">
          <mxGeometry y="82" width="313" height="5" as="geometry" />
        </mxCell>
        <mxCell id="O_pE0-xd7alUh3ZDXizb-129" value="+ field: type" style="text;strokeColor=none;fillColor=none;align=left;verticalAlign=top;spacingLeft=4;spacingRight=4;overflow=hidden;rotatable=0;points=[[0,0.5],[1,0.5]];portConstraint=eastwest;whiteSpace=wrap;html=1;fontSize=16;fontStyle=0" vertex="1" parent="O_pE0-xd7alUh3ZDXizb-127">
          <mxGeometry y="87" width="313" height="26" as="geometry" />
        </mxCell>
        <mxCell id="O_pE0-xd7alUh3ZDXizb-130" value="" style="line;strokeWidth=1;fillColor=none;align=left;verticalAlign=middle;spacingTop=-1;spacingLeft=3;spacingRight=3;rotatable=0;labelPosition=right;points=[];portConstraint=eastwest;strokeColor=inherit;fontSize=16;" vertex="1" parent="O_pE0-xd7alUh3ZDXizb-127">
          <mxGeometry y="113" width="313" height="8" as="geometry" />
        </mxCell>
        <mxCell id="O_pE0-xd7alUh3ZDXizb-131" value="+ addSP(SanPham sanPham) : boolean" style="text;strokeColor=none;fillColor=none;align=left;verticalAlign=top;spacingLeft=4;spacingRight=4;overflow=hidden;rotatable=0;points=[[0,0.5],[1,0.5]];portConstraint=eastwest;whiteSpace=wrap;html=1;fontSize=16;fontStyle=0" vertex="1" parent="O_pE0-xd7alUh3ZDXizb-127">
          <mxGeometry y="121" width="313" height="26" as="geometry" />
        </mxCell>
      </root>
    </mxGraphModel>
  </diagram>
</mxfile>
